<svg width="548" height="337" viewBox="0 0 548 337" fill="none" xmlns="http://www.w3.org/2000/svg">
<path opacity="0.1" d="M547.123 216.143C547.132 225.261 546.029 234.346 543.838 243.196C543.101 246.178 542.245 249.099 541.27 251.957C540.076 255.485 538.693 258.946 537.126 262.325C536.337 264.034 535.502 265.71 534.622 267.351C534.637 276.701 532.712 285.952 528.969 294.52C522.204 309.893 510.14 322.323 494.976 329.545C485.495 334.068 475.134 336.447 464.63 336.512H103.87C87.8189 336.547 72.0452 332.33 58.1524 324.291L57.9388 324.17C55.9599 323.012 54.0307 321.786 52.1509 320.491C47.9216 317.569 43.9481 314.294 40.2733 310.699C35.2995 305.839 30.9167 300.408 27.2158 294.52C18.5238 280.719 13.9193 264.737 13.9354 248.427C5.13287 232.982 0 214.48 0 194.599C0 169.515 8.15686 146.633 21.5581 129.311C24.352 125.693 27.4123 122.288 30.7136 119.125C33.971 115.995 37.472 113.129 41.1838 110.554C44.1534 108.492 47.257 106.63 50.474 104.98C51.8165 104.297 53.1636 103.652 54.5339 103.052C55.737 102.518 56.954 102.021 58.185 101.552C59.6621 100.992 61.1578 100.476 62.6722 100.005C64.1865 99.5346 65.6807 99.1227 67.1547 98.7697C69.3224 98.2401 71.5273 97.8097 73.7694 97.4783C75.6274 97.2043 77.4855 97.0138 79.3435 96.8698C80.8207 96.7583 82.3118 96.698 83.8122 96.6794H84.6251C86.2787 96.6794 87.9231 96.7444 89.5536 96.8559C89.7254 96.5121 89.9112 96.1638 90.0831 95.8247C90.7334 94.5844 91.407 93.3488 92.0851 92.1411C92.0836 92.1303 92.0836 92.1193 92.0851 92.1086C92.2013 91.8949 92.3174 91.6859 92.4382 91.4815C92.9863 90.4921 93.5577 89.5119 94.1429 88.5411C94.4124 88.0766 94.6771 87.6399 94.9512 87.2033C95.0092 87.0948 95.0727 86.9893 95.1416 86.8874C95.4204 86.4229 95.7037 85.9584 95.9917 85.4939C97.4255 83.2023 98.9166 80.9509 100.465 78.7399L100.86 78.1731C101.101 77.8294 101.324 77.495 101.594 77.1512C102.235 76.2547 102.894 75.3536 103.559 74.471C104.023 73.8392 104.488 73.2122 104.989 72.6129C106.197 71.0646 107.436 69.5162 108.705 67.9678C109.975 66.4194 111.294 64.8912 112.663 63.383C112.849 63.174 113.035 62.9696 113.23 62.7652L115.213 60.6006C115.311 60.4984 115.394 60.4055 115.487 60.3126C115.724 60.0571 115.952 59.8016 116.207 59.5555C117.271 58.4267 118.363 57.3211 119.459 56.2202C125.038 50.6635 130.981 45.4851 137.25 40.7194C137.496 40.5243 137.747 40.3385 137.993 40.1527C139.173 39.2655 140.371 38.3876 141.57 37.5236C148.162 32.7946 155.052 28.4966 162.199 24.6566C162.691 24.3732 163.193 24.1084 163.699 23.8483C170.106 20.4588 176.695 17.4256 183.436 14.7624C187.111 13.3085 190.869 11.9428 194.65 10.6933C197.167 9.86645 199.694 9.08143 202.254 8.34285C206.255 7.19086 210.284 6.15809 214.34 5.24455C226.292 2.56284 238.451 0.906254 250.684 0.292831C254.4 0.103929 258.158 0.0063828 261.958 0.000189291C280.292 -0.0240834 298.555 2.28609 316.306 6.87499C316.489 7.15234 316.74 7.37845 317.035 7.53204C317.33 7.68562 317.66 7.76163 317.992 7.75292H319.553C320.231 7.93872 320.904 8.12453 321.583 8.31962C325.37 9.40968 329.103 10.6004 332.782 11.8917L333.711 12.2262C342.791 15.455 351.626 19.3361 360.147 23.839C367.827 27.8884 375.222 32.4575 382.281 37.5143C383.368 38.2947 384.439 39.0813 385.495 39.874C386.777 39.0534 388.081 38.2668 389.406 37.5143C394.525 34.5992 399.961 32.2816 405.608 30.607C417.415 27.113 429.908 26.6244 441.952 29.1856C457.397 32.4604 471.379 40.5894 482.671 52.1511C487.269 56.8816 491.362 62.0782 494.883 67.6566C495.139 68.0561 495.394 68.4602 495.641 68.8689C498.667 73.8062 501.268 78.9918 503.416 84.3698C503.495 84.5695 503.574 84.7553 503.644 84.9504C505.627 89.9863 507.227 95.1649 508.429 100.442C508.484 100.711 508.549 100.976 508.605 101.246C509.729 106.353 510.493 111.532 510.891 116.746C510.891 116.932 510.891 117.123 510.928 117.318C511.123 120.015 511.222 122.74 511.225 125.493C511.225 127.955 511.141 130.398 510.988 132.823C510.988 133.088 510.951 133.362 510.928 133.636C510.886 134.337 510.825 135.03 510.765 135.736C514.313 138.597 517.633 141.73 520.696 145.105C522.05 146.582 523.36 148.115 524.626 149.704C528.484 154.539 531.875 159.729 534.753 165.204C542.607 180.032 547.123 197.474 547.123 216.143Z" fill="#6C63FF"/>
<path opacity="0.1" d="M494.632 327.826C494.632 330.999 483.702 333.971 464.629 336.526H103.87C87.8187 336.56 72.0449 332.344 58.1521 324.305L57.9385 324.184C63.4197 322.187 73.3139 320.324 86.7801 318.642L87.384 318.568C93.4227 317.83 100.172 317.128 107.549 316.464C107.734 316.464 107.925 316.436 108.111 316.413C113.963 315.893 120.189 315.405 126.789 314.95C126.998 314.95 127.202 314.912 127.411 314.903C129.957 314.72 132.555 314.547 135.206 314.383L136.228 314.318C155.528 313.119 177.467 312.162 201.259 311.531H201.287C204.619 311.438 207.987 311.356 211.39 311.285C215.175 311.195 219.005 311.116 222.883 311.048C225.842 310.983 228.838 310.936 231.843 310.89H231.913C245.472 310.685 259.482 310.583 273.807 310.583C309.231 310.583 342.713 311.229 372.382 312.39H372.465C377.027 312.567 381.505 312.762 385.871 312.961L389.587 313.138C394.514 313.373 399.314 313.626 403.987 313.895C458.939 317.021 494.632 322.098 494.632 327.826Z" fill="#6C63FF"/>
<g opacity="0.2">
<path opacity="0.2" d="M316.009 308.451C315.994 308.952 315.936 309.451 315.837 309.942C312.604 309.428 309.352 308.963 306.082 308.548C306.082 308.418 306.082 308.284 306.082 308.149C306.112 306.756 306.513 305.396 307.243 304.21C308.2 302.696 309.654 301.748 311.257 301.799C312.859 301.85 314.248 302.886 315.108 304.451C315.757 305.681 316.069 307.061 316.009 308.451Z" fill="#3F3D56"/>
<path opacity="0.2" d="M316.275 300.513C316.389 296.921 314.256 293.938 311.513 293.852C308.769 293.765 306.453 296.607 306.339 300.199C306.226 303.792 308.358 306.774 311.102 306.861C313.845 306.948 316.161 304.106 316.275 300.513Z" fill="#3F3D56"/>
<path opacity="0.2" d="M316.529 292.561C316.642 288.968 314.51 285.986 311.767 285.899C309.023 285.812 306.707 288.654 306.593 292.247C306.48 295.839 308.612 298.821 311.356 298.908C314.099 298.995 316.415 296.153 316.529 292.561Z" fill="#3F3D56"/>
<path opacity="0.2" d="M316.777 284.608C316.891 281.016 314.759 278.033 312.015 277.946C309.272 277.86 306.955 280.702 306.842 284.294C306.728 287.886 308.86 290.869 311.604 290.956C314.348 291.042 316.664 288.2 316.777 284.608Z" fill="#3F3D56"/>
<path opacity="0.2" d="M317.026 276.655C317.139 273.063 315.007 270.08 312.264 269.994C309.52 269.907 307.204 272.749 307.09 276.341C306.977 279.934 309.109 282.916 311.853 283.003C314.596 283.09 316.912 280.248 317.026 276.655Z" fill="#3F3D56"/>
<path opacity="0.2" d="M295.152 221.475C294.498 220.59 293.908 219.658 293.387 218.688L306.514 216.956L292.384 216.617C291.123 213.626 290.485 210.409 290.51 207.163C290.534 203.917 291.221 200.71 292.528 197.739L311.164 208.167L294.093 194.771C295.815 191.985 298.093 189.585 300.784 187.72C303.476 185.854 306.523 184.564 309.736 183.929C312.948 183.294 316.257 183.328 319.456 184.03C322.654 184.731 325.674 186.085 328.326 188.006C330.978 189.927 333.206 192.374 334.87 195.194C336.534 198.015 337.598 201.148 337.997 204.398C338.395 207.648 338.119 210.946 337.186 214.085C336.253 217.224 334.683 220.137 332.573 222.641C333.591 224.019 334.455 225.503 335.151 227.068L317.923 235.337L336.192 229.841C337.342 233.638 337.528 237.661 336.731 241.547C335.935 245.433 334.182 249.059 331.63 252.096C334.283 255.695 335.869 259.968 336.207 264.425C336.546 268.883 335.623 273.346 333.544 277.304C331.466 281.262 328.315 284.555 324.453 286.807C320.591 289.059 316.173 290.178 311.705 290.037C307.236 289.896 302.898 288.501 299.185 286.01C295.473 283.52 292.536 280.035 290.711 275.954C288.886 271.873 288.246 267.36 288.864 262.933C289.483 258.505 291.335 254.341 294.209 250.916C291.04 246.616 289.409 241.375 289.577 236.035C289.746 230.696 291.704 225.568 295.138 221.475H295.152Z" fill="#6C63FF"/>
<path opacity="0.1" d="M337.204 237.538C337.041 242.881 335.077 248.011 331.63 252.096C334.282 255.695 335.868 259.967 336.207 264.425C336.545 268.883 335.623 273.346 333.544 277.304C331.465 281.262 328.315 284.555 324.453 286.807C320.591 289.059 316.173 290.178 311.704 290.037C307.236 289.896 302.897 288.501 299.185 286.01C295.472 283.52 292.535 280.035 290.71 275.954C288.885 271.872 288.245 267.36 288.864 262.933C289.483 258.505 291.335 254.341 294.209 250.916C291.157 246.768 337.288 234.867 337.204 237.538Z" fill="black"/>
</g>
<g opacity="0.2">
<path opacity="0.2" d="M245.403 308.451C245.388 308.952 245.331 309.451 245.231 309.942C241.998 309.428 238.747 308.963 235.477 308.548C235.477 308.418 235.477 308.284 235.477 308.149C235.507 306.756 235.908 305.396 236.638 304.21C237.595 302.696 239.049 301.748 240.651 301.799C242.254 301.85 243.643 302.886 244.502 304.451C245.152 305.681 245.463 307.061 245.403 308.451Z" fill="#3F3D56"/>
<path opacity="0.2" d="M245.664 300.515C245.778 296.923 243.646 293.94 240.902 293.854C238.158 293.767 235.842 296.609 235.729 300.201C235.615 303.794 237.747 306.776 240.491 306.863C243.234 306.949 245.551 304.108 245.664 300.515Z" fill="#3F3D56"/>
<path opacity="0.2" d="M245.918 292.563C246.032 288.97 243.899 285.988 241.156 285.901C238.412 285.814 236.096 288.656 235.982 292.249C235.869 295.841 238.001 298.823 240.745 298.91C243.488 298.997 245.804 296.155 245.918 292.563Z" fill="#3F3D56"/>
<path opacity="0.2" d="M246.167 284.61C246.28 281.018 244.148 278.035 241.404 277.948C238.661 277.862 236.344 280.704 236.231 284.296C236.117 287.888 238.25 290.871 240.993 290.958C243.737 291.044 246.053 288.202 246.167 284.61Z" fill="#3F3D56"/>
<path opacity="0.2" d="M246.415 276.657C246.529 273.065 244.396 270.082 241.653 269.996C238.909 269.909 236.593 272.751 236.479 276.343C236.366 279.936 238.498 282.918 241.242 283.005C243.985 283.092 246.302 280.25 246.415 276.657Z" fill="#3F3D56"/>
<path opacity="0.2" d="M224.546 221.475C223.891 220.59 223.302 219.658 222.78 218.688L235.908 216.956L221.777 216.617C220.516 213.626 219.879 210.409 219.903 207.163C219.928 203.917 220.615 200.71 221.921 197.739L240.557 208.167L223.487 194.771C225.209 191.985 227.487 189.585 230.178 187.72C232.869 185.854 235.917 184.564 239.129 183.929C242.342 183.294 245.651 183.328 248.849 184.03C252.048 184.731 255.068 186.085 257.72 188.006C260.372 189.927 262.599 192.374 264.263 195.194C265.927 198.015 266.992 201.148 267.39 204.398C267.789 207.648 267.513 210.946 266.58 214.085C265.647 217.224 264.076 220.137 261.967 222.641C262.984 224.019 263.849 225.503 264.545 227.068L247.316 235.337L265.585 229.841C266.736 233.638 266.921 237.661 266.125 241.547C265.328 245.433 263.575 249.059 261.024 252.096C263.676 255.695 265.262 259.968 265.601 264.425C265.939 268.883 265.017 273.346 262.938 277.304C260.859 281.262 257.709 284.555 253.847 286.807C249.985 289.059 245.567 290.178 241.098 290.037C236.63 289.896 232.291 288.501 228.579 286.01C224.866 283.52 221.929 280.035 220.104 275.954C218.279 271.873 217.639 267.36 218.258 262.933C218.877 258.505 220.729 254.341 223.603 250.916C220.434 246.616 218.803 241.375 218.971 236.035C219.14 230.696 221.098 225.568 224.532 221.475H224.546Z" fill="#6C63FF"/>
<path opacity="0.1" d="M266.598 237.538C266.435 242.881 264.471 248.011 261.024 252.096C263.676 255.695 265.262 259.967 265.601 264.425C265.939 268.883 265.017 273.346 262.938 277.304C260.859 281.262 257.709 284.555 253.847 286.807C249.985 289.059 245.567 290.178 241.098 290.037C236.63 289.896 232.291 288.501 228.579 286.01C224.866 283.52 221.929 280.035 220.104 275.954C218.279 271.872 217.639 267.36 218.258 262.933C218.877 258.505 220.729 254.341 223.603 250.916C220.551 246.768 266.682 234.867 266.598 237.538Z" fill="black"/>
</g>
<g opacity="0.2">
<path opacity="0.2" d="M438.269 313.533C438.233 314.482 438.12 315.426 437.93 316.357C431.705 315.363 425.436 314.474 419.122 313.691C419.122 313.44 419.122 313.184 419.122 312.924C419.181 310.242 419.953 307.623 421.361 305.339C423.219 302.426 426.006 300.601 429.085 300.694C432.165 300.786 434.845 302.789 436.518 305.803C437.779 308.178 438.383 310.846 438.269 313.533Z" fill="#3F3D56"/>
<path opacity="0.2" d="M438.774 298.239C438.993 291.321 434.886 285.578 429.601 285.411C424.317 285.244 419.855 290.716 419.637 297.635C419.418 304.553 423.525 310.296 428.81 310.463C434.094 310.63 438.556 305.157 438.774 298.239Z" fill="#3F3D56"/>
<path opacity="0.2" d="M439.257 282.929C439.476 276.011 435.369 270.267 430.084 270.1C424.799 269.933 420.338 275.406 420.119 282.324C419.901 289.242 424.008 294.986 429.293 295.153C434.577 295.32 439.039 289.847 439.257 282.929Z" fill="#3F3D56"/>
<path opacity="0.2" d="M439.745 267.618C439.964 260.7 435.857 254.957 430.572 254.79C425.287 254.623 420.826 260.096 420.607 267.014C420.389 273.932 424.496 279.675 429.78 279.842C435.065 280.009 439.526 274.537 439.745 267.618Z" fill="#3F3D56"/>
<path opacity="0.2" d="M439.683 251.611C439.891 244.689 435.773 238.95 430.485 238.791C425.198 238.633 420.743 244.115 420.536 251.037C420.328 257.958 424.446 263.698 429.733 263.856C435.021 264.015 439.475 258.533 439.683 251.611Z" fill="#3F3D56"/>
<path opacity="0.2" d="M398.112 146.094C396.858 144.389 395.724 142.6 394.716 140.738L419.986 137.403L392.788 136.748C390.359 130.991 389.13 124.798 389.176 118.549C389.222 112.3 390.543 106.126 393.058 100.405L428.941 120.476L396.082 94.6866C399.404 89.3373 403.793 84.7295 408.974 81.1506C414.155 77.5717 420.018 75.0983 426.197 73.8846C432.376 72.6708 438.739 72.7427 444.889 74.0957C451.039 75.4488 456.845 78.0541 461.944 81.7491C467.043 85.4442 471.327 90.1499 474.527 95.5729C477.728 100.996 479.778 107.02 480.548 113.27C481.319 119.52 480.794 125.861 479.006 131.899C477.219 137.938 474.206 143.543 470.158 148.366C472.115 151.02 473.779 153.878 475.123 156.89L441.952 172.818L477.121 162.227C479.337 169.526 479.698 177.263 478.171 184.738C476.643 192.212 473.276 199.187 468.374 205.032C473.479 211.96 476.532 220.185 477.183 228.766C477.834 237.348 476.057 245.939 472.055 253.558C468.053 261.177 461.988 267.516 454.553 271.851C447.119 276.185 438.614 278.34 430.012 278.069C421.411 277.798 413.059 275.111 405.912 270.317C398.765 265.523 393.111 258.814 389.597 250.958C386.083 243.102 384.851 234.416 386.041 225.893C387.232 217.37 390.796 209.353 396.328 202.76C390.231 194.481 387.092 184.393 387.415 174.116C387.739 163.839 391.506 153.969 398.112 146.09V146.094Z" fill="#6C63FF"/>
<path opacity="0.1" d="M479.077 177.012C478.772 187.291 475.008 197.167 468.393 205.041C473.498 211.969 476.551 220.194 477.202 228.776C477.853 237.357 476.076 245.948 472.074 253.567C468.072 261.187 462.007 267.526 454.572 271.86C447.138 276.195 438.633 278.349 430.031 278.078C421.43 277.807 413.078 275.121 405.931 270.327C398.784 265.532 393.13 258.824 389.616 250.968C386.102 243.112 384.87 234.425 386.06 225.902C387.251 217.379 390.815 209.362 396.347 202.77C390.429 194.775 479.239 171.87 479.077 177.012Z" fill="black"/>
</g>
<path d="M73.3184 314.35L78.1911 314.336H85.0613L93.7477 173.227L179.771 29.6779L176.032 25.6645V15.501L82.9988 169.901L73.3184 314.35Z" fill="#F1C0C0"/>
<path opacity="0.1" d="M78.7114 314.336H85.0613L93.7477 173.227L179.771 29.6779L176.032 25.6645L87.3003 171.076L78.7114 314.336Z" fill="black"/>
<path d="M58.9609 315.526L281.858 332.583L282.048 332.596L497.764 319.33L497.926 319.321V310.212L260.235 305.85L61.9292 305.659H60.4799L60.322 306.681L58.9609 315.526Z" fill="#F1C0C0"/>
<path opacity="0.1" d="M58.9609 315.526L281.858 332.583L282.048 332.596L497.764 319.33L497.926 319.153V310.402H497.736L281.858 317.611L61.9292 305.659H61.8967L61.5065 305.915L60.322 306.681L58.9609 315.526Z" fill="black"/>
<path opacity="0.1" d="M58.9609 315.526L281.858 332.583V317.611L61.5065 305.915L60.322 306.681L58.9609 315.526Z" fill="black"/>
<path d="M176.004 25.4741L274.272 130.946L271.234 316.473L279.581 317.481L279.72 317.5H288.068L289.066 138.913L473.074 200.377L476.177 309.817L482.894 310.569L485.17 310.825L479.903 192.787L287.548 125.256L182.075 15.6078H176.004V25.4741Z" fill="#F1C0C0"/>
<path opacity="0.1" d="M288.309 135.499L289.066 138.913L473.074 200.377L476.177 309.817L482.894 310.569L477.626 198.101L288.309 135.499Z" fill="black"/>
<path opacity="0.1" d="M176.004 25.4741L274.272 130.947L271.234 316.473L279.581 317.481L281.857 124.875L176.004 15.6078V25.4741Z" fill="black"/>
<path d="M288.667 209.956L356.157 223.245L356.18 223.25L474.385 246.536L479.796 244.367L479.778 243.986L479.425 236.438L288.737 197.906L288.667 209.956Z" fill="#F1C0C0"/>
<path opacity="0.1" d="M356.179 223.25L474.384 246.536L479.796 244.367L479.777 243.986L356.179 223.25Z" fill="black"/>
<path d="M360.699 162.84L362.525 263.333L363.468 314.889L371.778 314.611L377.008 314.434L375.382 164.294L371.778 163.096L370.988 162.84H360.699Z" fill="#F1C0C0"/>
<path opacity="0.1" d="M360.773 162.817V162.84L362.525 263.333L363.468 314.889L371.778 314.61V162.817H360.773Z" fill="black"/>
<path d="M230.528 188.504C231.016 188.769 231.482 189.072 231.922 189.41C232.442 189.866 232.91 190.378 233.316 190.938C235.308 193.516 237.148 196.513 236.953 199.764C236.957 200.237 236.868 200.707 236.69 201.145C236.512 201.583 236.249 201.982 235.917 202.319C235.095 203.02 233.915 203.053 232.837 203.053C231.667 203.053 230.436 203.053 229.423 202.449C228.41 201.845 227.565 200.67 226.366 200.698C226.197 200.726 226.025 200.726 225.855 200.698C225.442 200.563 225.358 200.02 225.089 199.676C224.625 199.058 223.644 199.211 222.915 199.481C222.186 199.75 221.378 200.154 220.658 199.843C220.24 199.623 219.898 199.281 219.677 198.863C217.954 196.076 217.587 192.727 217.262 189.489C217.062 187.52 215.539 180.803 219.742 182.331C221.601 183 223.338 184.338 225.029 185.318L230.528 188.504Z" fill="#3F3D56"/>
<path d="M226.376 189.169C226.751 189.439 227.206 189.575 227.669 189.557C228.131 189.538 228.573 189.366 228.926 189.066C229.618 188.441 230.059 187.586 230.166 186.66C230.631 186.516 230.868 187.125 231.165 187.496C231.685 188.128 232.744 188.119 233.218 188.792C233.548 189.257 233.474 189.903 233.706 190.427C234.008 191.106 234.756 191.459 235.267 192.007C235.749 192.606 236.098 193.301 236.289 194.046L237.05 196.331C237.415 197.282 237.649 198.277 237.747 199.29C237.795 199.797 237.742 200.308 237.59 200.794C237.439 201.279 237.192 201.73 236.865 202.119C235.843 203.22 234.166 203.336 232.684 203.304C232.189 203.314 231.695 203.256 231.216 203.132C229.902 202.723 229.061 201.399 228.712 200.066C228.364 198.733 228.401 197.335 228.197 195.969C227.976 194.628 227.586 193.32 227.036 192.076C226.627 191.11 225.503 189.67 225.521 188.644C225.856 188.644 226.097 188.95 226.376 189.169Z" fill="#3F3D56"/>
<path d="M228.044 184.463C227.827 183.804 227.7 183.118 227.668 182.424C227.668 181.03 228.304 179.72 228.945 178.476L223.636 179.196C222.995 179.284 222.279 179.414 221.917 179.948C221.779 180.213 221.708 180.507 221.708 180.805C221.708 181.103 221.779 181.397 221.917 181.662C222.183 182.192 222.395 182.748 222.549 183.32C222.561 183.822 222.618 184.321 222.721 184.812C222.886 185.172 223.117 185.498 223.403 185.773C224.922 187.455 226.06 189.438 227.194 191.403C227.161 191.347 230.394 188.843 230.264 188.026C230.19 187.561 229.256 187.004 228.959 186.558C228.548 185.911 228.24 185.204 228.044 184.463Z" fill="#BE6F72"/>
<path d="M273.566 166.315V170.89L195.216 186.173L191.152 188.634H177.128V186.056L254.107 167.457L273.566 166.315Z" fill="#F1C0C0"/>
<path opacity="0.1" d="M273.566 170.89L195.216 186.173L191.152 188.634H177.128L254.678 172.037L273.566 170.89Z" fill="black"/>
<path d="M210.661 296.202C209.788 295.145 208.583 294.414 207.242 294.129C205.901 293.844 204.503 294.021 203.275 294.632C203.013 294.756 202.781 294.936 202.597 295.161C202.133 295.812 202.43 296.708 202.472 297.512C202.579 299.472 201.018 301.065 199.615 302.436C198.862 303.17 198.096 303.955 197.757 304.953C197.418 305.952 197.669 307.22 198.579 307.74C198.976 307.94 199.409 308.059 199.852 308.093C201.337 308.383 202.859 308.425 204.358 308.219C205.839 307.935 207.293 307.095 207.934 305.729C208.058 305.359 208.263 305.021 208.534 304.74C209.351 304.094 210.605 304.851 211.534 304.391C212.301 304.01 212.333 303.411 212.343 302.621C212.37 300.438 212.045 297.967 210.661 296.202Z" fill="#6C63FF"/>
<path d="M221.81 296.118C222.381 297.623 222.46 299.263 222.535 300.87C222.576 301.799 222.604 302.793 222.103 303.578C221.601 304.363 220.621 304.777 219.683 304.972C217.746 305.371 215.502 304.995 214.252 303.458C213.295 302.282 213.096 300.67 213.272 299.147C213.421 297.897 213.737 296.434 212.84 295.547C212.608 295.31 212.306 295.143 212.092 294.887C211.628 294.321 211.702 293.466 211.953 292.769C212.28 292.103 212.525 291.399 212.682 290.674C212.719 290.33 218.972 290.916 219.548 291.199C220.333 291.585 220.212 292.23 220.449 293.011C220.779 294.098 221.411 295.078 221.81 296.118Z" fill="#6C63FF"/>
<path d="M222.958 229.386C224.184 230.181 224.658 231.741 224.848 233.191C225.373 237.162 224.453 241.176 224.384 245.184C224.319 250.8 225.944 256.518 224.555 261.958C223.724 265.209 224.43 268.926 223.65 272.21C223.417 273.185 222.99 274.105 222.767 275.08C222.303 277.194 222.79 279.405 223.445 281.472C223.654 282.029 223.787 282.612 223.84 283.205C223.809 284.117 223.577 285.012 223.162 285.825L220.375 292.416C220.064 293.155 218.837 293.275 218.052 293.373C216.575 293.549 214.926 293.675 213.751 292.76C212.576 291.845 212.292 290.312 212.111 288.881C211.764 286.134 211.608 283.367 211.647 280.599C211.698 279.876 211.633 279.15 211.456 278.448C211.201 277.654 210.639 276.966 210.485 276.126C210.29 275.039 210.843 273.97 211.047 272.874C211.188 271.873 211.172 270.856 211.001 269.859C210.82 268.373 210.611 266.886 210.374 265.409C210.039 263.342 210.518 261.303 210.838 259.231C211.14 257.285 210.755 255.301 210.374 253.369C210.407 254.937 210.211 256.502 209.793 258.014C209.547 258.753 209.194 259.459 208.98 260.211C208.028 263.588 210.058 267.133 209.77 270.63C209.635 272.265 208.994 273.882 209.175 275.494C209.301 276.674 209.849 277.756 210.225 278.88C210.602 280.004 210.797 281.291 210.225 282.341C208.716 285.193 209.844 289.072 211.196 291.998C211.47 292.517 211.709 293.054 211.911 293.605C212.311 294.924 211.976 296.341 212.083 297.716C211.694 297.78 211.296 297.754 210.918 297.64C210.541 297.527 210.194 297.329 209.905 297.061C209.7 296.847 209.533 296.597 209.333 296.374C208.775 295.842 208.115 295.429 207.392 295.161C206.967 294.924 206.484 294.813 205.998 294.841C205.488 294.983 205.028 295.269 204.674 295.663C204.215 296.067 203.727 296.438 203.216 296.773C202.998 296.941 202.743 297.054 202.473 297.103C202.337 297.124 202.197 297.102 202.075 297.039C201.952 296.977 201.852 296.877 201.79 296.755C201.761 296.677 201.743 296.596 201.739 296.513C201.566 295.11 201.475 293.699 201.465 292.286C201.465 289.857 198.557 288.184 198.19 285.783C197.897 283.846 198.441 281.872 198.259 279.921C198.171 278.917 197.892 277.932 197.911 276.929C197.911 276.279 198.06 275.642 198.111 274.997C198.153 274.28 198.142 273.561 198.078 272.846L197.934 270.602C197.795 268.387 197.642 266.125 196.768 264.099C195.733 261.734 195.12 259.206 194.957 256.63C194.864 255.004 194.924 253.378 194.738 251.748C194.571 250.275 194.2 248.812 194.306 247.335C194.395 246.192 194.771 245.087 194.859 243.944C195.04 241.747 194.204 239.61 193.549 237.506C192.894 235.402 192.411 233.07 193.271 231.04C193.393 230.707 193.598 230.41 193.865 230.176C194.195 229.958 194.57 229.818 194.961 229.767C202.931 228.093 211.1 227.572 219.218 228.22C220.542 228.295 221.826 228.696 222.958 229.386Z" fill="#3F3D56"/>
<path d="M196.587 180.05C200.697 180.05 204.029 176.719 204.029 172.609C204.029 168.499 200.697 165.167 196.587 165.167C192.477 165.167 189.146 168.499 189.146 172.609C189.146 176.719 192.477 180.05 196.587 180.05Z" fill="#BE6F72"/>
<path d="M195.147 181.904C195.254 182.329 195.254 182.774 195.147 183.2C195.03 183.497 194.865 183.773 194.659 184.017C193.939 184.946 193.142 185.813 192.276 186.609C192.717 187.594 193.511 188.378 194.501 188.806C195.485 189.225 196.516 189.52 197.572 189.684C198.099 189.823 198.647 189.861 199.188 189.796C199.687 189.67 200.159 189.456 200.582 189.164L204.716 186.688C205.34 186.35 205.917 185.933 206.435 185.448C207.193 184.669 207.622 183.627 207.633 182.54C207.652 182.345 207.6 182.15 207.485 181.992C207.326 181.854 207.127 181.771 206.918 181.755C205.464 181.435 204.317 180.255 203.666 178.917C203.078 177.545 202.698 176.094 202.537 174.611L198.129 176.933C197.474 177.282 196.824 177.63 196.146 177.932C195.714 178.127 194.84 178.29 194.534 178.685C193.949 179.414 194.994 181.026 195.147 181.904Z" fill="#BE6F72"/>
<path d="M192.304 185.257C191.676 185.772 191.186 186.434 190.878 187.185C190.59 188.114 190.878 189.094 191.138 190.014C192.357 193.934 193.289 197.938 193.925 201.994C194.315 204.781 194.459 207.61 194.65 210.429C195.04 216.18 195.607 225.35 196.364 231.063C199.151 231.188 201.868 230.376 204.632 230.078C209.797 229.53 215.116 230.784 220.175 229.614C218.948 224.769 217.722 216.496 216.496 211.656C215.953 209.749 215.577 207.798 215.372 205.826C215.265 204.409 215.33 202.988 215.348 201.562C215.39 198.775 215.237 195.988 215.084 193.201C214.907 189.949 214.731 186.697 213.959 183.515C213.906 183.11 213.716 182.735 213.421 182.452C212.956 182.113 212.352 182.233 211.8 182.308C210.107 182.523 208.394 182.117 206.978 181.165C206.365 180.747 205.543 180.236 204.971 180.701C204.727 180.981 204.566 181.323 204.507 181.69C204.254 182.347 203.864 182.943 203.362 183.437C202.861 183.931 202.26 184.313 201.599 184.556C200.275 185.035 198.889 185.32 197.483 185.401C197.053 185.494 196.605 185.443 196.206 185.257C195.546 184.853 195.5 183.399 194.668 183.302C193.939 183.218 192.796 184.788 192.304 185.257Z" fill="#3F3D56"/>
<path d="M203.294 196.601C201.58 194.961 200.828 192.583 199.578 190.562C198.728 189.203 197.64 188.008 196.369 187.032C195.729 186.61 195.143 186.112 194.622 185.55C194.181 185.007 193.846 184.282 193.177 184.073C192.901 184.013 192.614 184.021 192.341 184.096C192.069 184.171 191.818 184.312 191.612 184.505C191.202 184.895 190.815 185.308 190.451 185.741C188.481 187.78 185.021 188.063 183.46 190.423C183.039 190.923 182.752 191.523 182.628 192.165C182.179 195.599 183.067 199.075 185.109 201.873C185.504 202.522 186.111 203.014 186.827 203.267C186.73 204.133 186.845 205.009 187.162 205.821C188.022 208.761 189.079 211.64 190.325 214.438C190.027 215.533 189.819 216.65 189.703 217.778C189.378 220.616 189.68 223.496 189.373 226.339C189.122 228.662 188.444 230.924 188.421 233.251C188.421 233.623 188.453 234.064 188.774 234.254C188.944 234.342 189.135 234.382 189.327 234.37L195.04 234.542C198.357 234.64 201.706 234.737 204.971 234.124C205.406 234.06 205.828 233.927 206.221 233.729C207.326 233.112 207.693 231.718 207.87 230.478C208.1 228.869 208.192 227.243 208.144 225.619C208.836 227.807 209.658 230.069 211.749 231.017C212.854 231.518 214.118 231.481 215.33 231.449C217.943 231.332 220.547 231.064 223.129 230.645C223.288 230.665 223.45 230.647 223.601 230.593C223.752 230.539 223.888 230.451 223.999 230.335C224.109 230.219 224.191 230.078 224.238 229.925C224.285 229.771 224.295 229.609 224.267 229.451L224.295 226.915C224.351 221.764 223.073 216.84 222.576 211.711C222.419 210.095 222.432 208.46 222.038 206.876C221.875 206.212 221.638 205.561 221.494 204.892C221.37 204.238 221.293 203.575 221.262 202.909L220.9 197.799C220.728 195.435 220.481 193.154 220.3 190.794C220.201 188.497 219.868 186.215 219.306 183.985C218.902 182.591 218.061 181.012 216.607 180.84C215.832 180.752 215.079 181.091 214.341 181.328C212.525 181.899 210.577 181.891 208.766 181.304C208.207 181.084 207.624 180.928 207.029 180.84C206.73 180.799 206.425 180.839 206.146 180.955C205.866 181.071 205.623 181.259 205.441 181.5C205.26 181.862 205.176 182.265 205.194 182.67C204.976 187.311 204.572 192.09 203.294 196.601Z" fill="#6C63FF"/>
<path d="M195.82 196.74C193.679 194.483 191.481 192.183 188.722 190.748C187.635 190.181 186.4 189.754 185.197 189.968C183.993 190.181 182.874 191.226 182.93 192.448C182.967 193.205 183.427 193.874 183.571 194.617C183.738 195.454 183.496 196.345 183.757 197.154C183.968 197.686 184.284 198.171 184.686 198.58L187.974 202.477C189.368 204.103 190.761 205.752 192.554 206.876C194.347 208 196.67 208.525 198.64 207.726C200.041 207.075 201.206 206.005 201.975 204.665C202.792 203.364 203.368 201.943 204.135 200.6C205.328 198.455 206.902 196.546 208.78 194.966C207.814 194.715 206.601 194.362 205.993 193.572C205.82 193.321 205.672 193.054 205.552 192.773L204.799 191.147C204.543 191.134 204.287 191.174 204.047 191.264C203.808 191.355 203.589 191.494 203.405 191.672C203.083 192.045 202.737 192.398 202.37 192.727C201.715 193.219 200.827 193.354 200.233 193.916C200.003 194.157 199.795 194.418 199.61 194.696C199.161 195.287 198.59 195.776 197.936 196.128C197.282 196.481 196.561 196.689 195.82 196.74Z" fill="#3F3D56"/>
<path d="M208.952 187.027C210.564 184.087 210.489 180.561 210.949 177.24C210.999 176.36 211.308 175.515 211.837 174.811C212.766 173.761 214.405 173.747 215.808 173.882C216.222 173.928 216.737 174.123 216.714 174.536C216.681 174.685 216.609 174.821 216.505 174.931C215.145 176.686 214.346 178.81 214.21 181.026C214.939 181.532 216.068 180.492 216.77 181.026C217.234 181.416 217.02 182.187 216.742 182.744C216.095 184.036 215.427 185.318 214.74 186.591C214.191 187.712 213.475 188.745 212.617 189.652C212.027 190.218 211.335 190.664 210.736 191.222C209.342 192.527 208.501 194.371 207.061 195.644C206.94 195.776 206.775 195.86 206.597 195.881C206.414 195.868 206.241 195.79 206.109 195.663C205.39 195.077 204.793 194.356 204.353 193.54C203.805 192.527 203.889 192.23 204.753 191.514C206.369 190.237 207.944 188.867 208.952 187.027Z" fill="#BE6F72"/>
<path d="M193.126 194.743C193.405 194.915 193.749 195.11 194.055 194.966C194.181 194.89 194.287 194.787 194.367 194.664C194.898 193.955 195.341 193.185 195.686 192.369C195.745 192.254 195.779 192.127 195.783 191.998C195.783 191.7 195.519 191.482 195.272 191.31C193.953 190.469 192.535 189.795 191.05 189.303C189.824 188.839 188.542 188.435 187.241 188.551C186.752 188.584 186.275 188.715 185.839 188.937C185.402 189.159 185.015 189.467 184.7 189.842C183.771 191.036 185.327 191.398 186.303 191.83C188.56 192.857 191.004 193.451 193.126 194.743Z" fill="#6C63FF"/>
<path opacity="0.1" d="M191.663 202.64C191.647 202.746 191.657 202.854 191.691 202.955C191.725 203.057 191.782 203.149 191.858 203.225C191.993 202.565 191.816 201.868 191.956 201.204C192.16 200.205 193.131 199.453 193.215 198.45C191.436 198.101 191.677 201.562 191.663 202.64Z" fill="black"/>
<path opacity="0.2" d="M273.566 166.315V170.89L254.679 172.037L254.107 167.457L273.566 166.315Z" fill="black"/>
<path d="M189.888 173.714C191.068 172.753 190.385 170.737 191.184 169.445C191.649 168.739 192.434 168.368 193.205 168.052C194.136 167.616 195.133 167.34 196.155 167.234C196.666 167.185 197.183 167.252 197.665 167.43C198.148 167.607 198.584 167.891 198.942 168.261C199.244 168.605 199.448 169.023 199.731 169.38C200.082 169.798 200.54 170.112 201.055 170.29C201.57 170.469 202.124 170.504 202.658 170.393C203.276 170.254 203.917 169.784 203.875 169.153C203.805 168.769 203.609 168.419 203.317 168.159L201.989 166.686C200.479 165.014 198.802 163.239 196.587 162.821C195.044 162.529 193.465 162.942 191.979 163.439C191.379 163.639 190.706 163.936 190.539 164.545C190.427 164.963 190.594 165.418 190.497 165.841C190.306 166.682 189.229 166.965 188.727 167.671C188.225 168.377 188.379 169.213 188.235 169.994C188.091 170.774 187.673 171.536 187.621 172.344C187.589 172.832 187.835 173.737 188.383 173.914C188.931 174.091 189.549 173.134 189.888 173.714Z" fill="#3F3D56"/>
<path d="M203.425 168.484C203.033 166.44 202.189 164.51 200.954 162.835C199.855 161.271 198.328 160.057 196.555 159.342C195.669 158.996 194.715 158.855 193.767 158.93C192.818 159.005 191.899 159.293 191.078 159.774C189.859 160.644 188.911 161.84 188.342 163.226C187.139 165.818 186.693 168.986 188.091 171.475C188.649 170.797 189.606 171.104 190.451 170.858C191.51 170.556 192.407 169.85 193.415 169.408C196.457 168.066 200.173 169.153 203.425 168.484Z" fill="#FED253"/>
<path opacity="0.1" d="M188.801 168.34C188.694 167.504 188.624 166.533 189.219 165.938C189.249 165.902 189.286 165.873 189.329 165.853C189.372 165.834 189.418 165.825 189.465 165.827C189.507 165.84 189.545 165.862 189.578 165.891C189.61 165.92 189.637 165.955 189.656 165.994C189.999 166.536 190.291 167.108 190.529 167.703C190.183 167.624 189.821 167.65 189.489 167.778C189.158 167.906 188.873 168.131 188.671 168.423" fill="black"/>
<path opacity="0.1" d="M199.657 165.98L199.49 164.322C199.463 164.185 199.474 164.044 199.523 163.913C199.593 163.804 199.701 163.724 199.826 163.69C199.951 163.655 200.085 163.669 200.201 163.727C200.429 163.854 200.618 164.042 200.744 164.271C201.131 164.864 201.452 165.498 201.701 166.161C200.953 166.017 200.183 166.027 199.439 166.189" fill="black"/>
<path opacity="0.1" d="M203.815 233.283V237.074L200.614 237.288H183.78V233.283H203.815Z" fill="black"/>
<path d="M203.815 233.283V237.288H183.78L130.556 170.616V167.467H141.714L203.815 233.283Z" fill="#F1C0C0"/>
<path opacity="0.1" d="M203.815 233.283V237.288H183.78L130.556 170.616V167.467H141.714L203.815 233.283Z" fill="black"/>
<path opacity="0.1" d="M203.815 233.283V237.288H183.78L130.556 170.616V167.467L184.068 233.283H203.815Z" fill="black"/>
<path d="M137.533 300.108C137.568 300.297 137.564 300.49 137.521 300.677C137.477 300.864 137.396 301.04 137.282 301.194C137.168 301.347 137.023 301.476 136.857 301.572C136.691 301.667 136.506 301.727 136.316 301.748C135.025 302.185 133.654 302.617 132.739 303.606C131.824 304.596 131.643 306.43 132.739 307.234C133.3 307.572 133.943 307.747 134.597 307.74C136.701 307.884 138.894 307.856 140.803 306.965C142.169 306.333 143.456 305.255 144.956 305.353C145.732 305.399 146.558 305.762 147.251 305.408C147.943 305.055 148.138 304.071 148.142 303.249C148.16 301.532 147.901 299.824 147.376 298.19C147.306 297.967 144.352 297.795 143.999 297.725L140.418 297.261C139.739 297.173 138.276 296.662 137.742 297.228C137.208 297.795 137.533 299.435 137.533 300.108Z" fill="#6C63FF"/>
<path d="M158.905 288.514C159.057 289.351 159.303 290.167 159.639 290.948C160.136 292.212 160.773 293.554 161.99 294.167C163.095 294.72 164.452 294.52 165.576 293.995C166.045 293.801 166.456 293.489 166.77 293.09C167.132 292.457 167.294 291.73 167.234 291.004C167.234 289.206 167.127 287.348 166.305 285.75C165.599 284.357 164.368 283.158 164.35 281.616L160.118 282.434C159.891 282.455 159.676 282.541 159.495 282.68C159.361 282.821 159.268 282.996 159.226 283.186C158.774 284.924 158.665 286.734 158.905 288.514Z" fill="#6C63FF"/>
<path d="M108.371 244.385C108.194 245.881 108.269 247.484 109.049 248.775C109.829 250.066 111.474 250.921 112.895 250.405C112.968 250.387 113.036 250.354 113.096 250.308C113.156 250.263 113.206 250.206 113.244 250.141C113.281 249.984 113.26 249.818 113.183 249.676C112.556 248.001 112.607 246.148 113.327 244.511C113.42 244.297 113.62 244.046 113.838 244.13C113.929 244.176 114.003 244.251 114.047 244.344C114.272 244.733 114.385 245.176 114.372 245.626C114.307 246.033 114.294 246.446 114.335 246.857C114.423 247.256 114.851 247.632 115.222 247.46C115.33 247.394 115.423 247.307 115.495 247.204C115.568 247.101 115.619 246.985 115.645 246.861C116.681 243.865 116.212 240.59 115.738 237.455C115.742 237.383 115.73 237.311 115.703 237.244C115.676 237.177 115.635 237.117 115.582 237.068C115.529 237.019 115.467 236.982 115.398 236.959C115.329 236.937 115.257 236.93 115.185 236.939C112.993 236.721 111.794 236.196 110.54 238.235C109.462 239.954 108.371 242.318 108.371 244.385Z" fill="#6C63FF"/>
<path d="M134.003 236.763C133.353 239.466 132.698 242.202 132.656 244.98C132.667 246.71 132.798 248.438 133.046 250.15L133.534 254.173C133.701 255.529 133.864 256.881 134.1 258.223C134.252 258.915 134.334 259.62 134.347 260.327C134.301 261.025 134.191 261.717 134.017 262.395C133.725 263.817 133.561 265.263 133.529 266.714C133.478 269.037 133.766 271.36 133.947 273.682C134.309 278.31 134.254 282.962 133.785 287.58C133.597 288.827 133.868 290.099 134.546 291.162C134.822 291.497 135.049 291.869 135.22 292.267C135.568 293.331 134.755 294.395 134.546 295.486C134.413 296.338 134.622 297.207 135.129 297.904C135.636 298.601 136.399 299.068 137.25 299.203C140.966 299.644 144.784 299.444 148.133 301.144C148.486 300.113 147.715 298.942 148.068 297.893C148.291 297.242 148.904 296.82 149.323 296.271C149.884 295.436 150.164 294.443 150.121 293.438C150.138 292.125 149.905 290.822 149.434 289.596C149.039 288.574 148.472 287.566 148.505 286.47C148.505 285.931 148.695 285.365 148.477 284.868C148.327 284.582 148.124 284.328 147.878 284.12C146.49 282.599 145.636 280.666 145.448 278.615C145.267 276.58 145.333 274.531 145.644 272.512C145.871 270.589 146.178 268.559 147.399 267.058C146.833 262.509 147.166 257.892 148.38 253.471C148.5 253.062 148.691 252.589 149.109 252.491C149.275 252.474 149.443 252.497 149.598 252.559C149.753 252.62 149.891 252.718 150.001 252.844C150.73 253.527 151.078 254.516 151.394 255.464C151.743 256.491 152.096 257.587 151.831 258.637C151.719 259.101 151.496 259.51 151.366 259.956C151.084 260.852 151.133 261.82 151.506 262.683C151.687 262.998 151.801 263.347 151.84 263.709C151.797 264.02 151.703 264.321 151.561 264.601C151.389 265.151 151.334 265.73 151.401 266.303C151.467 266.875 151.653 267.427 151.947 267.922C152.539 268.909 153.27 269.805 154.116 270.584C153.712 272.367 153.816 274.227 154.418 275.954C154.462 276.031 154.489 276.117 154.5 276.205C154.51 276.294 154.503 276.384 154.479 276.469C154.395 276.646 154.181 276.711 154.014 276.836C153.55 277.217 153.838 277.937 154.149 278.434C155.002 279.798 155.944 281.105 156.968 282.345C157.897 283.456 157.814 285.597 159.198 285.996C159.78 286.122 160.382 286.122 160.963 285.996C162.329 285.787 163.852 285.393 164.521 284.185C164.795 283.688 164.907 283.084 165.334 282.712C165.762 282.341 166.314 282.276 166.551 281.83C166.788 281.384 166.523 280.799 166.602 280.283C166.681 279.767 167.132 279.354 167.276 278.81C167.62 277.556 166.156 276.525 165.957 275.243C165.669 273.385 168.01 271.991 167.912 270.133C167.708 266.097 167.578 262.041 167.369 258.005C167.107 254.389 167.069 250.76 167.257 247.14C167.42 244.887 167.722 242.527 166.895 240.432C165.706 237.478 162.426 235.82 159.254 235.504C156.081 235.188 152.918 235.94 149.773 236.433C144.554 237.237 139.251 237.348 134.003 236.763Z" fill="#3F3D56"/>
<path d="M143.432 192.364C147.542 192.364 150.874 189.033 150.874 184.923C150.874 180.813 147.542 177.481 143.432 177.481C139.322 177.481 135.991 180.813 135.991 184.923C135.991 189.033 139.322 192.364 143.432 192.364Z" fill="#FBBEBE"/>
<path d="M140.404 193.753C140.151 194.342 139.726 194.84 139.185 195.183C138.643 195.525 138.011 195.696 137.371 195.672C137.101 196.787 137.747 197.911 138.485 198.789C140.019 200.573 142.001 201.917 144.227 202.68C146.453 203.444 148.842 203.6 151.148 203.132C152.045 202.971 152.897 202.616 153.642 202.091C154.648 201.252 155.322 200.083 155.547 198.793C155.761 197.512 155.822 196.21 155.728 194.915C155.754 194.659 155.681 194.403 155.524 194.199C155.338 194.055 155.108 193.98 154.873 193.986C153.303 193.846 151.664 193.786 150.284 193.015C148.904 192.244 147.924 190.502 148.589 189.071C148.482 189.294 145.769 189.401 145.411 189.447C144.292 189.605 143.172 189.782 142.057 189.986C141.522 190.016 140.992 190.116 140.483 190.283C139.809 190.632 140.06 190.46 140.218 191.092C140.455 192.058 140.803 192.75 140.404 193.753Z" fill="#FBBEBE"/>
<path d="M146.066 198.278C145.064 198.289 144.064 198.179 143.089 197.948C142.104 197.718 141.236 197.139 140.645 196.318C140.302 195.797 140.079 195.142 139.531 194.85C138.634 194.385 137.612 195.17 136.897 195.89C136.245 196.6 135.491 197.208 134.658 197.692C133.664 198.217 132.502 198.403 131.564 199.021C130.831 199.575 130.202 200.254 129.706 201.028L123.124 209.993C120.481 213.597 118.181 217.467 115.826 221.271C113.787 224.565 112.719 228.355 111.181 231.909C111.059 232.126 111.009 232.376 111.037 232.624C111.093 232.865 111.386 233.061 111.59 232.921C110.898 233.609 111.506 234.779 111.344 235.745C111.159 236.421 110.774 237.026 110.238 237.478C111.261 237.345 112.299 237.393 113.304 237.622C114.343 237.917 115.324 238.388 116.203 239.016C116.765 238.927 116.714 237.929 117.132 237.557C117.383 237.339 117.754 237.367 118.084 237.302C119.324 237.06 119.817 235.569 120.769 234.728C121.563 234.027 122.687 233.799 123.528 233.139C124.894 232.066 125.186 230.157 125.902 228.573C126.51 227.231 127.467 226.06 128.001 224.685C128.35 223.793 128.517 222.827 129.014 222.005C129.808 220.677 131.304 219.971 132.73 219.334C133.631 218.93 134.588 218.512 135.559 218.577C135.508 220.737 135.234 222.864 135.703 224.973C135.865 225.717 136.093 226.441 136.288 227.18C137.175 230.506 137.384 233.971 137.426 237.399C139.56 236.911 141.74 236.649 143.929 236.619C145.653 236.568 147.371 236.791 149.095 236.758C151.139 236.721 153.159 236.326 155.203 236.187C157.247 236.047 159.384 236.187 161.191 237.116C161.044 234.172 161.126 231.221 161.437 228.29L161.929 223.673C162.04 222.331 162.247 220.999 162.547 219.687C162.817 218.628 163.207 217.606 163.504 216.552C164.549 212.836 164.359 208.869 164.159 204.999C164.057 203.011 163.29 201.056 162.389 199.286C162.063 198.628 161.69 197.995 161.274 197.391C160.185 195.89 158.734 194.69 157.056 193.902C155.378 193.114 153.528 192.764 151.678 192.885C151.441 192.892 151.208 192.942 150.99 193.033C150.598 193.284 150.292 193.649 150.112 194.079C149.151 195.806 147.757 197.253 146.066 198.278Z" fill="#3F3D56"/>
<path d="M136.887 187.39C137.096 186.925 137.658 186.753 138.002 186.382C138.662 185.676 138.364 184.547 138.467 183.594C138.634 182.201 139.79 181.035 141.114 180.538C142.464 180.105 143.901 180.014 145.295 180.273C145.966 180.322 146.614 180.538 147.181 180.9C147.422 181.077 147.645 181.304 147.873 181.467C148.288 181.718 148.784 181.796 149.256 181.686C149.729 181.576 150.139 181.286 150.4 180.877C148.756 178.898 146.935 176.808 144.436 176.199C143.578 176.024 142.705 175.942 141.83 175.953C140.673 175.93 139.479 175.911 138.411 176.353C136.957 176.952 135.935 178.332 135.41 179.818C134.951 181.325 134.706 182.888 134.681 184.463C134.586 185.514 134.586 186.571 134.681 187.622C134.86 189.057 135.393 190.425 136.232 191.603C136.346 191.786 136.506 191.935 136.697 192.035C138.815 192.964 136.715 187.775 136.887 187.39Z" fill="#3F3D56"/>
<path d="M150.159 179.73C149.903 177.542 148.343 175.735 146.684 174.281C145.348 173.02 143.756 172.062 142.016 171.471C140.265 170.955 138.249 171.067 136.748 172.112C135.541 172.952 134.774 174.29 134.184 175.637C133.409 177.227 133.025 178.979 133.065 180.747C133.181 182.503 134.036 184.282 135.559 185.169C136.107 184.361 137.06 183.943 137.975 183.613C141.963 182.1 146.03 180.803 150.159 179.73Z" fill="#FED253"/>
<path opacity="0.1" d="M136.07 178.819C136.218 178.819 136.316 178.973 136.39 179.098C136.768 179.687 137.093 180.309 137.361 180.956C136.818 181.072 135.884 181.202 135.614 180.724C135.47 180.482 135.642 178.796 136.07 178.819Z" fill="black"/>
<path opacity="0.1" d="M146.656 177.769C146.545 177.876 146.415 177.658 146.415 177.5V175.698C146.412 175.648 146.423 175.598 146.447 175.554C146.466 175.532 146.49 175.514 146.516 175.501C146.542 175.488 146.571 175.481 146.6 175.479C146.977 175.438 147.288 175.758 147.529 176.065C147.896 176.562 148.215 177.092 148.482 177.649L146.517 177.588" fill="black"/>
<path d="M171.177 207.614C171.605 207.209 172.061 206.835 172.543 206.495C173.83 205.636 175.386 205.297 176.831 204.748C178.275 204.2 179.743 203.313 180.305 201.873C180.587 200.973 180.678 200.024 180.575 199.086C180.588 198.693 180.518 198.302 180.37 197.939C180.193 197.617 179.942 197.343 179.636 197.14C177.676 195.69 175.047 195.574 172.613 195.723C167.246 196.056 161.987 197.369 157.093 199.597C156.835 199.682 156.608 199.844 156.443 200.061C156.348 200.263 156.305 200.485 156.318 200.707C156.231 202.077 156.409 203.451 156.843 204.753C157.484 206.407 158.803 207.74 159.356 209.426C159.606 210.183 159.69 210.987 159.908 211.749C160.087 212.535 160.553 213.227 161.214 213.69C163.048 214.787 164.781 213.314 166.054 212.171L171.177 207.614Z" fill="#3F3D56"/>
<path d="M147.149 214.048L144.794 208.91C144.448 208.198 144.15 207.465 143.902 206.713C143.632 205.817 143.502 204.888 143.251 203.987C142.425 200.986 140.339 198.487 139.322 195.546C139.257 195.281 139.126 195.036 138.941 194.836C138.792 194.731 138.622 194.66 138.443 194.627C138.264 194.595 138.081 194.603 137.905 194.65C136.483 194.896 135.373 195.978 134.073 196.592C133.469 196.87 132.818 197.056 132.215 197.377C131.913 197.52 131.645 197.726 131.43 197.982C131.216 198.237 131.058 198.536 130.97 198.858C130.826 199.569 131.179 200.252 131.476 200.944C132.739 203.796 133.027 206.983 133.083 210.104C133.125 212.204 133.018 214.457 131.778 216.143C129.395 219.395 130.919 224.17 131.81 228.104C131.917 228.569 132.043 229.07 132.117 229.563C132.196 230.179 132.231 230.8 132.224 231.421C132.224 233.506 132.108 235.657 131.234 237.548C132.097 238.006 133.047 238.276 134.021 238.337C136.719 238.681 139.427 238.923 142.146 239.062C142.998 239.142 143.857 239.098 144.696 238.932C145.693 238.663 146.571 238.069 147.193 237.244C147.815 236.42 148.144 235.412 148.129 234.38C148.277 235.666 148.551 237.065 149.485 237.956C150.419 238.848 151.78 238.983 153.048 239.053C156.627 239.243 160.216 239.142 163.778 238.751C164.006 238.741 164.229 238.689 164.438 238.597C165.125 238.254 165.162 237.306 165.107 236.544C165.005 235.118 164.898 233.692 164.726 232.275C164.58 231.372 164.506 230.459 164.503 229.544C164.574 228.603 164.729 227.67 164.967 226.757C165.59 223.858 166.082 220.9 165.873 217.931C165.791 217.208 165.761 216.48 165.785 215.753C165.906 214.113 166.77 212.552 166.607 210.922C166.143 206.128 165.766 201.209 164.429 196.582C164.187 195.755 163.88 194.868 163.16 194.394C162.231 193.772 160.926 194.097 159.862 193.702C159.363 193.47 158.889 193.188 158.446 192.862C157.483 192.26 156.38 191.92 155.245 191.877C154.39 191.844 153.438 192.035 152.923 192.722C152.684 193.109 152.526 193.541 152.458 193.99C151.784 196.824 150.995 199.625 150.205 202.426L149.448 205.111L147.418 212.32C147.218 213.086 147.353 213.323 147.149 214.048Z" fill="#6C63FF"/>
<path d="M159.026 185.922L203.959 233.139V237.144H183.924L150.159 193.075" fill="#F1C0C0"/>
<path opacity="0.1" d="M159.026 185.922L203.959 233.139V237.144H183.924L150.159 193.075" fill="black"/>
<path opacity="0.1" d="M150.874 192.453L151.018 192.504L184.212 233.139H203.959V237.144H183.924L150.159 193.075L150.874 192.453Z" fill="black"/>
<path d="M156.044 193.447C154.418 194.158 152.611 195.068 152.123 196.777C152.027 197.077 152.006 197.396 152.063 197.706C152.182 198.071 152.408 198.391 152.713 198.624C153.017 198.857 153.385 198.992 153.768 199.012C154.533 199.03 155.293 198.891 156.002 198.603L165.594 195.435C165.854 195.351 166.152 195.226 166.217 194.97C166.233 194.81 166.201 194.648 166.124 194.506C165.826 193.781 165.534 192.299 164.911 191.793C164.4 191.384 163.388 191.528 162.77 191.538C160.392 191.556 158.157 192.518 156.044 193.447Z" fill="#6C63FF"/>
<path d="M164.595 195.811C166.211 195.806 167.818 196.056 169.357 196.55C170.902 197.052 172.271 197.987 173.3 199.244C173.6 199.595 173.813 200.012 173.923 200.461C174.016 200.925 175.53 201.204 175.196 201.52C176.213 201.357 175.971 201.836 177.003 201.827C178.034 201.817 179.149 201.553 179.766 200.73C180.196 200.055 180.387 199.255 180.31 198.459C180.323 197.907 180.219 197.359 180.003 196.852C179.539 195.876 178.47 195.351 177.486 194.901L169.189 191.106C168.708 190.85 168.192 190.666 167.657 190.562C167.206 190.52 166.753 190.531 166.305 190.595L162.547 191.027C163.369 191.559 164.038 192.295 164.488 193.164C164.939 194.033 165.155 195.005 165.116 195.983" fill="#3F3D56"/>
</svg>
