<svg width="662" height="543" viewBox="0 0 662 543" fill="none" xmlns="http://www.w3.org/2000/svg">
<g clip-path="url(#clip0)">
<path d="M559.399 179.072L544.107 179.665L544.87 199.342L560.161 198.749L559.399 179.072Z" fill="#6C63FF"/>
<path d="M490.419 247.985C490.419 247.985 469.243 237.859 469.582 246.604C469.921 255.349 490.927 261.103 490.927 261.103L490.419 247.985Z" fill="#FFB9B9"/>
<path d="M502.038 321.981C502.038 321.981 492.047 346.455 488.356 364.115C484.664 381.775 479.043 406.079 486.274 423.315C493.505 440.552 514.064 491.21 514.276 496.676C514.488 502.142 512.515 507.692 516.884 507.523C521.253 507.353 545.028 499.862 545.993 496.54C546.958 493.218 537.882 484.812 537.882 484.812L515.468 414.519L538.853 368.724L555.721 437.042L559.025 522.309C559.025 522.309 575.239 517.301 577.593 521.589C577.593 521.589 584.857 511.454 585.78 507.038C586.703 502.623 582.349 418.492 582.349 418.492C582.349 418.492 597.233 322.666 585.218 323.132C573.203 323.598 526.143 294.77 502.038 321.981Z" fill="#3A385F"/>
<path d="M516.714 503.15C516.714 503.15 505.631 527.666 504.581 528.802C503.531 529.937 496.309 541.166 501.77 540.954C507.232 540.742 520.127 534.767 529.618 525.64C539.11 516.514 551.624 500.701 550.489 499.65C549.354 498.599 541.582 495.616 541.582 495.616L516.714 503.15Z" fill="#2F2E41"/>
<path d="M560.997 516.759C560.997 516.759 560.328 527.733 558.313 532.19C556.298 536.648 556.552 543.207 562.014 542.995C567.475 542.783 581.589 540.046 581.589 540.046C581.589 540.046 582.427 533.444 581.293 532.393C580.158 531.343 575.323 519.487 577.381 516.123C579.438 512.759 560.997 516.759 560.997 516.759Z" fill="#2F2E41"/>
<path d="M569.077 160.632C569.077 160.632 580.719 178.792 585.258 182.995C589.796 187.198 577.028 196.452 577.028 196.452L554.176 199.529C554.176 199.529 554.463 178.716 553.286 176.572C552.109 174.428 569.077 160.632 569.077 160.632Z" fill="#FFB9B9"/>
<path d="M549.213 184.394C549.213 184.394 553.921 192.969 558.29 192.8C562.659 192.63 585.258 182.995 586.223 179.673C587.188 176.351 593.708 203.468 593.708 203.468L538.412 300.863L524.923 291.533L531.459 234.349L536.826 203.486L549.213 184.394Z" fill="#6C63FF"/>
<path d="M588.262 271.558C586.056 276.176 584.679 280.992 584.87 285.922C584.878 286.141 584.887 286.359 584.906 286.578C585.429 296.695 589.154 308.397 590.49 316.906C591.459 323.01 591.183 327.466 587.614 328.513C578.961 331.039 588.876 332.844 555.397 343.996C521.919 355.149 516.076 345.522 515.991 343.336C515.907 341.15 520.733 324.54 519.598 323.489C518.463 322.439 503.723 337.243 499.269 335.226C494.815 333.21 498.761 322.108 498.761 322.108C498.761 322.108 508.794 298.728 508.582 293.262C508.37 287.796 523.78 262.018 523.78 262.018L534.261 193.733C534.261 193.733 538.291 184.818 543.71 183.513C549.128 182.207 553.625 185.317 553.625 185.317L544.557 205.376L534.99 240.781L536.59 253.857C536.59 253.857 547.715 230.434 555.022 221.392C562.329 212.35 577.908 190.944 577.908 190.944C577.908 190.944 581.545 178.661 578.8 174.991C576.053 171.309 590.253 170.758 596.307 185.85C599.516 193.849 604.725 205.778 607.989 216.884C610.897 226.723 612.271 235.921 609.39 241.178C604.986 249.21 593.909 259.767 588.262 271.558Z" fill="#575A89"/>
<path opacity="0.1" d="M609.39 241.178C604.986 249.21 593.91 259.766 588.263 271.558C586.788 266.239 584.988 260.737 584.988 260.737C584.988 260.737 578.087 223.781 598.501 214.23C601.883 213.903 605.266 214.849 607.989 216.884C610.897 226.723 612.271 235.92 609.39 241.178Z" fill="black"/>
<path d="M528.352 238.849L511.045 243.9L487.015 244.833L484.543 265.73L524.034 268.577C524.034 268.577 533.897 240.823 528.352 238.849Z" fill="#575A89"/>
<path d="M556.572 309.113C556.572 309.113 533.42 312.957 538.704 319.93C543.988 326.903 564.499 319.572 564.499 319.572L556.572 309.113Z" fill="#FFB9B9"/>
<path opacity="0.1" d="M584.906 286.578C585.429 296.695 589.153 308.397 590.49 316.906C583.114 323.893 576.1 330.055 573.457 330.158C567.996 330.37 559.215 329.615 555.981 330.836C552.747 332.056 550.85 311.328 550.85 311.328C550.85 311.328 552.78 304.685 561.391 301.066C567.203 298.618 578.344 291.978 584.906 286.578Z" fill="black"/>
<path d="M598.246 207.671C598.246 207.671 616.73 204.764 615.731 235.458C614.733 266.151 617.68 285.744 610.246 291.506C602.812 297.269 578.664 323.387 573.203 323.599C567.742 323.81 558.961 323.056 555.727 324.277C552.493 325.497 550.596 304.769 550.596 304.769C550.596 304.769 552.526 298.126 561.137 294.507C569.748 290.888 590.035 278.058 589.865 273.685C589.696 269.313 584.734 254.178 584.734 254.178C584.734 254.178 577.833 217.222 598.246 207.671Z" fill="#575A89"/>
<path d="M552.778 187.522C566.059 187.522 576.825 176.746 576.825 163.454C576.825 150.162 566.059 139.386 552.778 139.386C539.496 139.386 528.73 150.162 528.73 163.454C528.73 176.746 539.496 187.522 552.778 187.522Z" fill="#FFB9B9"/>
<path d="M536.586 128.958C536.006 129.458 535.311 129.807 534.564 129.973C534.189 130.04 533.802 129.956 533.489 129.739C533.176 129.522 532.961 129.189 532.892 128.814C532.341 129.956 531.721 131.173 530.597 131.759C529.474 132.345 527.737 131.854 527.575 130.596C527.411 131.551 526.989 132.443 526.355 133.174C525.658 133.84 524.394 134.007 523.786 133.26C524.278 135.951 523.974 138.718 524.128 141.449C524.283 144.18 525.011 147.075 527.072 148.871C530.079 151.49 534.6 150.843 538.555 150.347C539.153 150.222 539.773 150.256 540.354 150.446C541.835 151.077 541.768 153.14 541.787 154.751C541.908 157.578 543.026 160.27 544.942 162.349C546.858 164.429 549.449 165.762 552.254 166.111C553.823 166.354 555.425 165.962 556.707 165.023C557.83 164.071 558.403 162.518 559.69 161.803C561.783 160.639 564.321 162.336 565.852 164.179C567.382 166.023 568.89 168.29 571.26 168.627C574.396 169.074 576.784 165.876 577.955 162.931C579.572 158.804 580.346 154.395 580.233 149.964C580.119 145.533 579.121 141.169 577.296 137.13C570.749 122.848 548.387 120.589 536.586 128.958Z" fill="#2F2E41"/>
<path d="M409.329 148.783C436.687 148.783 458.866 126.586 458.866 99.2045C458.866 71.823 436.687 49.626 409.329 49.626C381.97 49.626 359.792 71.823 359.792 99.2045C359.792 126.586 381.97 148.783 409.329 148.783Z" fill="#6C63FF"/>
<path d="M355.436 46.8968C366.85 58.6138 384.382 60.033 384.382 60.033C384.382 60.033 383.41 42.455 371.997 30.738C360.584 19.021 343.051 17.6018 343.051 17.6018C343.051 17.6018 344.023 35.1797 355.436 46.8968Z" fill="#3F3D56"/>
<path d="M359.265 40.8747C375.051 45.1361 384.836 59.7653 384.836 59.7653C384.836 59.7653 369.028 67.4853 353.242 63.224C337.456 58.9626 327.67 44.3334 327.67 44.3334C327.67 44.3334 343.479 36.6133 359.265 40.8747Z" fill="#6C63FF"/>
<path d="M374.761 29.7028C374.866 46.0663 386.514 59.2574 386.514 59.2574C386.514 59.2574 397.994 45.9181 397.889 29.5546C397.784 13.1911 386.135 0 386.135 0C386.135 0 374.656 13.3393 374.761 29.7028Z" fill="#3F3D56"/>
<path d="M381.692 28.021C390.113 42.0475 387.027 59.3793 387.027 59.3793C387.027 59.3793 370.288 53.9696 361.867 39.943C353.446 25.9165 356.532 8.58472 356.532 8.58472C356.532 8.58472 373.271 13.9944 381.692 28.021Z" fill="#6C63FF"/>
<path d="M404.847 120.876C418.906 120.876 430.303 109.47 430.303 95.3985C430.303 81.3275 418.906 69.9207 404.847 69.9207C390.787 69.9207 379.39 81.3275 379.39 95.3985C379.39 109.47 390.787 120.876 404.847 120.876Z" fill="#F2F2F2"/>
<path d="M392.933 111.545C397.493 111.545 401.19 107.845 401.19 103.282C401.19 98.7181 397.493 95.0186 392.933 95.0186C388.374 95.0186 384.677 98.7181 384.677 103.282C384.677 107.845 388.374 111.545 392.933 111.545Z" fill="#3F3D56"/>
<path d="M143.106 543.105C170.465 543.105 192.643 520.908 192.643 493.527C192.643 466.146 170.465 443.948 143.106 443.948C115.748 443.948 93.5693 466.146 93.5693 493.527C93.5693 520.908 115.748 543.105 143.106 543.105Z" fill="#6C63FF"/>
<path d="M121.478 421.577C125.747 437.373 140.371 447.156 140.371 447.156C140.371 447.156 148.073 431.328 143.804 415.532C139.534 399.736 124.91 389.953 124.91 389.953C124.91 389.953 117.208 405.781 121.478 421.577Z" fill="#3F3D56"/>
<path d="M127.752 418.182C139.467 429.597 140.898 447.143 140.898 447.143C140.898 447.143 123.334 446.183 111.619 434.769C99.9031 423.355 98.4722 405.808 98.4722 405.808C98.4722 405.808 116.036 406.768 127.752 418.182Z" fill="#6C63FF"/>
<path d="M146.721 415.975C138.853 430.319 142.611 447.517 142.611 447.517C142.611 447.517 159.127 441.459 166.995 427.115C174.864 412.771 171.106 395.573 171.106 395.573C171.106 395.573 154.59 401.631 146.721 415.975Z" fill="#3F3D56"/>
<path d="M153.594 417.883C154.126 434.238 142.999 447.874 142.999 447.874C142.999 447.874 131.01 434.992 130.477 418.637C129.945 402.281 141.072 388.646 141.072 388.646C141.072 388.646 153.061 401.528 153.594 417.883Z" fill="#6C63FF"/>
<path d="M141.042 513.496C155.102 513.496 166.499 502.089 166.499 488.018C166.499 473.947 155.102 462.541 141.042 462.541C126.983 462.541 115.586 473.947 115.586 488.018C115.586 502.089 126.983 513.496 141.042 513.496Z" fill="#F2F2F2"/>
<path d="M149.299 483.887C153.858 483.887 157.555 480.187 157.555 475.624C157.555 471.06 153.858 467.361 149.299 467.361C144.739 467.361 141.042 471.06 141.042 475.624C141.042 480.187 144.739 483.887 149.299 483.887Z" fill="#3F3D56"/>
<path d="M65.9727 543.422L64.7499 542.79C80.6305 512.062 72.1386 472.157 62.2189 444.092C55.4831 425.229 46.8917 407.082 36.5713 389.918L37.7343 389.182C48.1083 406.433 56.7445 424.673 63.5156 443.633C73.5267 471.954 82.0785 512.257 65.9727 543.422Z" fill="#2F2E41"/>
<path d="M77.7473 389.427L68.8208 438.32L70.174 438.568L79.1005 389.675L77.7473 389.427Z" fill="#2F2E41"/>
<path d="M18.3925 431.085L17.3848 432.023L63.4813 481.602L64.4891 480.663L18.3925 431.085Z" fill="#2F2E41"/>
<path d="M101.263 485.545L77.8813 517.917L78.9967 518.724L102.378 486.352L101.263 485.545Z" fill="#2F2E41"/>
<path d="M81.8733 376.467C85.6731 376.467 88.7534 373.384 88.7534 369.581C88.7534 365.778 85.6731 362.695 81.8733 362.695C78.0735 362.695 74.9932 365.778 74.9932 369.581C74.9932 373.384 78.0735 376.467 81.8733 376.467Z" fill="#6C63FF"/>
<path d="M6.88012 429.488C10.6799 429.488 13.7602 426.405 13.7602 422.602C13.7602 418.799 10.6799 415.716 6.88012 415.716C3.08033 415.716 0 418.799 0 422.602C0 426.405 3.08033 429.488 6.88012 429.488Z" fill="#3F3D56"/>
<path d="M37.1526 436.374C40.9524 436.374 44.0327 433.291 44.0327 429.488C44.0327 425.685 40.9524 422.602 37.1526 422.602C33.3528 422.602 30.2725 425.685 30.2725 429.488C30.2725 433.291 33.3528 436.374 37.1526 436.374Z" fill="#3F3D56"/>
<path d="M23.3923 463.229C27.1921 463.229 30.2724 460.146 30.2724 456.343C30.2724 452.54 27.1921 449.457 23.3923 449.457C19.5925 449.457 16.5122 452.54 16.5122 456.343C16.5122 460.146 19.5925 463.229 23.3923 463.229Z" fill="#6C63FF"/>
<path d="M109.394 480.444C113.194 480.444 116.274 477.361 116.274 473.558C116.274 469.755 113.194 466.672 109.394 466.672C105.594 466.672 102.514 469.755 102.514 473.558C102.514 477.361 105.594 480.444 109.394 480.444Z" fill="#3F3D56"/>
<path d="M86.6897 488.018C90.4895 488.018 93.5698 484.935 93.5698 481.132C93.5698 477.33 90.4895 474.247 86.6897 474.247C82.8899 474.247 79.8096 477.33 79.8096 481.132C79.8096 484.935 82.8899 488.018 86.6897 488.018Z" fill="#3F3D56"/>
<path d="M102.514 510.053C106.314 510.053 109.394 506.97 109.394 503.167C109.394 499.364 106.314 496.281 102.514 496.281C98.7141 496.281 95.6338 499.364 95.6338 503.167C95.6338 506.97 98.7141 510.053 102.514 510.053Z" fill="#3F3D56"/>
<path d="M30.2727 384.73C34.0725 384.73 37.1528 381.647 37.1528 377.844C37.1528 374.041 34.0725 370.958 30.2727 370.958C26.4729 370.958 23.3926 374.041 23.3926 377.844C23.3926 381.647 26.4729 384.73 30.2727 384.73Z" fill="#3F3D56"/>
<path d="M472.386 123.423H140.765V322.425H472.386V123.423Z" fill="#3F3D56"/>
<path d="M153.837 134.44C155.737 134.44 157.277 132.899 157.277 130.997C157.277 129.096 155.737 127.554 153.837 127.554C151.937 127.554 150.397 129.096 150.397 130.997C150.397 132.899 151.937 134.44 153.837 134.44Z" fill="#6C63FF"/>
<path d="M166.221 134.44C168.121 134.44 169.661 132.899 169.661 130.997C169.661 129.096 168.121 127.554 166.221 127.554C164.321 127.554 162.781 129.096 162.781 130.997C162.781 132.899 164.321 134.44 166.221 134.44Z" fill="#6C63FF"/>
<path d="M178.606 134.44C180.505 134.44 182.046 132.899 182.046 130.997C182.046 129.096 180.505 127.554 178.606 127.554C176.706 127.554 175.166 129.096 175.166 130.997C175.166 132.899 176.706 134.44 178.606 134.44Z" fill="#6C63FF"/>
<path d="M472.386 138.697H141.042V140.074H472.386V138.697Z" fill="#2F2E41"/>
<path d="M334.096 179.199V241.172H244.084L227.454 261.141L229.353 241.172H221.262V179.199H334.096Z" fill="#6C63FF"/>
<path opacity="0.1" d="M334.096 200.545H293.503V241.172H334.096V200.545Z" fill="black"/>
<path d="M302.448 209.497H415.282V271.47H407.189L409.09 291.439L392.462 271.47H302.448V209.497Z" fill="#6C63FF"/>
<path opacity="0.1" d="M228.142 271.134C241.822 271.134 252.911 270.051 252.911 268.715C252.911 267.38 241.822 266.297 228.142 266.297C214.463 266.297 203.374 267.38 203.374 268.715C203.374 270.051 214.463 271.134 228.142 271.134Z" fill="black"/>
<path opacity="0.1" d="M409.089 303.833C424.668 303.833 437.298 302.6 437.298 301.079C437.298 299.558 424.668 298.325 409.089 298.325C393.51 298.325 380.881 299.558 380.881 301.079C380.881 302.6 393.51 303.833 409.089 303.833Z" fill="black"/>
</g>
<defs>
<clipPath id="clip0">
<rect width="662" height="543" fill="white"/>
</clipPath>
</defs>
</svg>
