<svg width="414" height="291" viewBox="0 0 414 291" fill="none" xmlns="http://www.w3.org/2000/svg">
<path d="M240.221 283.907C237.146 286.112 233.811 287.931 230.292 289.325C229.371 289.693 228.444 290.036 227.501 290.349H179.402C179.207 290.011 179.018 289.668 178.823 289.325C174.921 282.34 171.383 275.084 170.379 267.192C169.176 257.719 172.55 246.991 180.892 242.336C181.985 241.727 183.142 241.243 184.343 240.892C184.84 240.738 185.347 240.616 185.859 240.508C188.986 239.814 192.241 239.965 195.29 240.946C198.339 241.928 201.072 243.703 203.207 246.09C205.343 248.478 206.804 251.39 207.44 254.53C208.077 257.669 207.866 260.921 206.829 263.951C213.901 256.7 212.579 244.943 210.142 235.116C207.699 225.289 204.74 214.351 209.712 205.523C212.472 200.612 217.331 197.565 222.78 196.336C222.949 196.3 223.118 196.264 223.282 196.234C229.778 194.918 236.531 196.101 242.193 199.547C252.619 206.112 257.97 218.571 259.706 230.768C262.507 250.401 256.311 272.308 240.221 283.907Z" fill="#F2F2F2"/>
<path d="M189.634 246.766C193.484 254.584 194.713 263.435 193.136 272.006C191.947 278.291 189.325 284.217 185.476 289.325C185.214 289.673 184.948 290.016 184.677 290.349H182.777C183.069 290.016 183.355 289.673 183.627 289.325C187.124 284.969 189.659 279.922 191.066 274.516C192.472 269.11 192.719 263.468 191.789 257.96C190.686 251.764 188.135 245.916 184.344 240.892C184.841 240.738 185.348 240.616 185.86 240.508C187.302 242.477 188.565 244.571 189.634 246.766Z" fill="white"/>
<path d="M235.648 252.434C235.237 256.765 234.197 261.012 232.561 265.042C231.052 268.608 229.019 271.929 226.528 274.894C221.443 281.014 214.715 285.617 207.407 288.679C206.875 288.905 206.337 289.12 205.794 289.325C204.852 289.693 203.899 290.031 202.942 290.349H197.754C198.978 290.041 200.197 289.698 201.4 289.325C204.262 288.434 207.053 287.334 209.752 286.032C216.613 282.78 222.571 277.893 227.102 271.801C231.961 265.093 234.107 257.028 234.476 248.829C234.865 240.057 233.723 231.127 231.721 222.59C229.677 213.841 226.57 205.375 222.467 197.381C222.376 197.2 222.357 196.991 222.415 196.796C222.473 196.602 222.604 196.437 222.78 196.336C222.927 196.238 223.107 196.202 223.282 196.234C223.367 196.256 223.446 196.296 223.513 196.353C223.581 196.41 223.635 196.481 223.671 196.561C224.178 197.55 224.675 198.538 225.151 199.537C229.127 207.862 232.056 216.648 233.871 225.694C235.628 234.419 236.57 243.55 235.648 252.434Z" fill="white"/>
<path d="M21.748 144.919C17.4943 144.919 13.3361 143.657 9.79922 141.294C6.26236 138.931 3.50571 135.572 1.87787 131.642C0.250037 127.712 -0.175874 123.387 0.653991 119.215C1.48386 115.043 3.53223 111.211 6.54008 108.203C9.54793 105.195 13.3802 103.147 17.5522 102.317C21.7242 101.487 26.0486 101.913 29.9785 103.541C33.9085 105.169 37.2675 107.926 39.6307 111.462C41.994 114.999 43.2554 119.157 43.2554 123.411C43.2489 129.113 40.9809 134.58 36.9489 138.612C32.9169 142.644 27.4502 144.912 21.748 144.919ZM21.748 102.928C17.6969 102.928 13.7366 104.129 10.3682 106.38C6.99977 108.631 4.3744 111.83 2.82407 115.573C1.27375 119.315 0.868119 123.434 1.65847 127.407C2.44881 131.381 4.39965 135.03 7.26427 137.895C10.1289 140.76 13.7786 142.71 17.752 143.501C21.7253 144.291 25.8438 143.885 29.5866 142.335C33.3294 140.785 36.5284 138.159 38.7792 134.791C41.0299 131.423 42.2312 127.462 42.2312 123.411C42.2251 117.981 40.065 112.774 36.225 108.934C32.385 105.094 27.1786 102.934 21.748 102.928Z" fill="#3F3D56"/>
<path d="M108.801 75.7877C104.548 75.7877 100.389 74.5263 96.8524 72.1631C93.3156 69.7998 90.5589 66.4408 88.9311 62.5109C87.3033 58.5809 86.8773 54.2565 87.7072 50.0845C88.5371 45.9125 90.5855 42.0803 93.5933 39.0724C96.6012 36.0646 100.433 34.0162 104.605 33.1863C108.777 32.3565 113.102 32.7824 117.032 34.4102C120.962 36.0381 124.321 38.7947 126.684 42.3316C129.047 45.8684 130.309 50.0266 130.309 54.2804C130.302 59.9825 128.034 65.4492 124.002 69.4812C119.97 73.5132 114.503 75.7812 108.801 75.7877ZM108.801 33.7972C104.75 33.7972 100.79 34.9985 97.4214 37.2493C94.053 39.5 91.4276 42.699 89.8773 46.4418C88.327 50.1846 87.9213 54.3031 88.7117 58.2765C89.502 62.2498 91.4529 65.8995 94.3175 68.7642C97.1821 71.6288 100.832 73.5796 104.805 74.37C108.779 75.1603 112.897 74.7547 116.64 73.2043C120.383 71.654 123.582 69.0287 125.832 65.6602C128.083 62.2918 129.284 58.3316 129.284 54.2804C129.278 48.8498 127.118 43.6434 123.278 39.8034C119.438 35.9634 114.232 33.8034 108.801 33.7972Z" fill="#3F3D56"/>
<path d="M202 43.0146C197.746 43.0146 193.588 41.7532 190.051 39.39C186.514 37.0267 183.757 33.6678 182.129 29.7378C180.502 25.8079 180.076 21.4835 180.905 17.3115C181.735 13.1394 183.784 9.3072 186.792 6.29935C189.799 3.2915 193.632 1.24313 197.804 0.413266C201.976 -0.416598 206.3 0.00932016 210.23 1.63716C214.16 3.265 217.519 6.02163 219.882 9.55849C222.245 13.0954 223.507 17.2536 223.507 21.5073C223.5 27.2094 221.232 32.6761 217.2 36.7081C213.168 40.7402 207.702 43.0082 202 43.0146ZM202 1.02416C197.948 1.02416 193.988 2.22548 190.62 4.4762C187.251 6.72691 184.626 9.92594 183.076 13.6688C181.525 17.4116 181.12 21.53 181.91 25.5034C182.7 29.4767 184.651 33.1265 187.516 35.9911C190.38 38.8557 194.03 40.8065 198.003 41.5969C201.977 42.3872 206.095 41.9816 209.838 40.4313C213.581 38.881 216.78 36.2556 219.031 32.8871C221.281 29.5187 222.483 25.5585 222.483 21.5073C222.477 16.0767 220.317 10.8703 216.477 7.03031C212.637 3.1903 207.43 1.03029 202 1.02416Z" fill="#3F3D56"/>
<path d="M301.342 76.8117C297.089 76.8117 292.93 75.5504 289.393 73.1871C285.857 70.8239 283.1 67.4649 281.472 63.5349C279.844 59.605 279.418 55.2806 280.248 51.1086C281.078 46.9366 283.126 43.1043 286.134 40.0965C289.142 37.0886 292.974 35.0402 297.146 34.2104C301.318 33.3805 305.643 33.8064 309.573 35.4343C313.503 37.0621 316.862 39.8188 319.225 43.3556C321.588 46.8925 322.85 51.0507 322.85 55.3044C322.843 61.0065 320.575 66.4733 316.543 70.5053C312.511 74.5373 307.044 76.8053 301.342 76.8117ZM301.342 34.8213C297.291 34.8213 293.331 36.0226 289.962 38.2733C286.594 40.524 283.969 43.7231 282.418 47.4659C280.868 51.2087 280.462 55.3272 281.253 59.3005C282.043 63.2738 283.994 66.9236 286.858 69.7882C289.723 72.6528 293.373 74.6037 297.346 75.394C301.32 76.1844 305.438 75.7787 309.181 74.2284C312.924 72.6781 316.123 70.0527 318.373 66.6843C320.624 63.3158 321.825 59.3556 321.825 55.3044C321.819 49.8738 319.659 44.6674 315.819 40.8274C311.979 36.9874 306.773 34.8274 301.342 34.8213Z" fill="#3F3D56"/>
<path d="M392.493 128.532C388.239 128.532 384.081 127.27 380.544 124.907C377.007 122.544 374.25 119.185 372.623 115.255C370.995 111.325 370.569 107.001 371.399 102.829C372.228 98.6567 374.277 94.8244 377.285 91.8166C380.293 88.8087 384.125 86.7603 388.297 85.9305C392.469 85.1006 396.793 85.5265 400.723 87.1544C404.653 88.7822 408.012 91.5389 410.375 95.0757C412.739 98.6126 414 102.771 414 107.025C413.994 112.727 411.726 118.193 407.694 122.225C403.662 126.257 398.195 128.525 392.493 128.532ZM392.493 86.5414C388.441 86.5414 384.481 87.7427 381.113 89.9934C377.744 92.2441 375.119 95.4432 373.569 99.186C372.018 102.929 371.613 107.047 372.403 111.021C373.193 114.994 375.144 118.644 378.009 121.508C380.873 124.373 384.523 126.324 388.497 127.114C392.47 127.904 396.588 127.499 400.331 125.948C404.074 124.398 407.273 121.773 409.524 118.404C411.775 115.036 412.976 111.076 412.976 107.025C412.97 101.594 410.81 96.3875 406.97 92.5475C403.13 88.7075 397.923 86.5475 392.493 86.5414Z" fill="#3F3D56"/>
<path d="M121.092 48.3903L123.652 47.8783C123.652 47.8783 121.502 50.285 121.092 50.4387C121.054 50.95 121.054 51.4635 121.092 51.9749C116.176 73.0725 98.0483 63.7527 98.0483 63.7527C104.654 63.9063 105.217 61.1923 105.217 61.1923C101.377 60.629 100.609 58.1198 100.609 58.1198C100.953 58.3016 101.353 58.3499 101.731 58.2554C102.109 58.1609 102.439 57.9303 102.657 57.6078C98.5092 56.5324 99.0725 52.487 99.0725 52.487C99.8118 53.0207 100.676 53.3558 101.582 53.4599C101.121 52.8966 97.229 48.2367 99.5846 45.8299C99.5846 45.8299 102.452 50.9507 109.98 51.4116L110.492 51.3092C110.405 50.9404 110.37 50.5611 110.389 50.1826C110.389 48.7566 110.956 47.389 111.964 46.3806C112.973 45.3723 114.34 44.8058 115.766 44.8058C119.351 44.8058 120.119 46.8541 120.119 46.8541L122.679 45.3179C122.628 45.3179 122.372 47.8783 121.092 48.3903Z" fill="#3F3D56"/>
<path d="M284.612 276.335L290.25 279.098L303.59 258.669L295.271 254.591L284.612 276.335Z" fill="#FFB8B8"/>
<path d="M284.077 273.789L295.178 279.231L295.179 279.231C296.108 279.687 296.938 280.321 297.622 281.097C298.306 281.873 298.831 282.777 299.166 283.756C299.5 284.735 299.639 285.77 299.574 286.803C299.509 287.836 299.241 288.845 298.785 289.774L298.673 290.004L280.496 281.094L284.077 273.789Z" fill="#2F2E41"/>
<path d="M340.478 285.967L346.756 285.966L349.742 261.752H340.477L340.478 285.967Z" fill="#FFB8B8"/>
<path d="M338.876 281.869L351.24 281.868H351.24C352.275 281.868 353.299 282.072 354.255 282.468C355.211 282.864 356.08 283.444 356.811 284.176C357.543 284.908 358.123 285.776 358.519 286.732C358.915 287.688 359.119 288.713 359.119 289.747V290.003L338.876 290.004L338.876 281.869Z" fill="#2F2E41"/>
<path d="M326.992 118.848C333.938 118.848 339.569 113.217 339.569 106.271C339.569 99.3246 333.938 93.6936 326.992 93.6936C320.046 93.6936 314.415 99.3246 314.415 106.271C314.415 113.217 320.046 118.848 326.992 118.848Z" fill="#FFB8B8"/>
<path d="M339.517 277.98C338.923 277.979 338.353 277.75 337.925 277.339C337.496 276.929 337.243 276.369 337.217 275.776L332.356 211.069C332.35 210.9 332.288 210.737 332.18 210.606C332.073 210.475 331.924 210.383 331.759 210.346C331.594 210.308 331.42 210.326 331.266 210.397C331.112 210.468 330.986 210.588 330.907 210.738L299.808 270.109C299.526 270.642 299.047 271.044 298.473 271.229C297.9 271.414 297.276 271.368 296.736 271.101L288.067 266.766C287.523 266.493 287.109 266.016 286.915 265.439C286.721 264.862 286.763 264.232 287.031 263.686L305.588 226.083L317.879 197.916C322.623 188.571 327.661 183.755 333.281 183.193C339.046 182.618 345.202 186.582 352.106 195.313L352.162 195.384L352.161 195.475L351.137 274.518C351.138 275.092 350.925 275.646 350.538 276.07C350.151 276.494 349.619 276.758 349.047 276.809L339.742 277.969C339.666 277.976 339.591 277.98 339.517 277.98Z" fill="#2F2E41"/>
<path d="M313.718 202.465C314.402 202.042 314.986 201.475 315.427 200.803C315.869 200.131 316.157 199.37 316.273 198.574C316.389 197.778 316.328 196.967 316.096 196.197C315.864 195.427 315.466 194.717 314.93 194.117L316.827 144.007L307.61 145.156L306.832 193.906C305.885 194.873 305.325 196.154 305.259 197.506C305.192 198.859 305.625 200.188 306.473 201.243C307.322 202.298 308.528 203.005 309.863 203.231C311.199 203.456 312.57 203.183 313.718 202.465Z" fill="#FFB8B8"/>
<path d="M319.548 152.867L307.17 151.46C306.818 151.42 306.478 151.305 306.175 151.122C305.871 150.939 305.611 150.692 305.411 150.399C305.211 150.107 305.077 149.774 305.017 149.425C304.957 149.075 304.974 148.717 305.065 148.375L308.261 136.373C308.476 134.572 309.396 132.93 310.82 131.807C312.244 130.684 314.055 130.171 315.856 130.381C317.657 130.591 319.302 131.507 320.429 132.928C321.556 134.348 322.074 136.158 321.869 137.96L322.292 150.332C322.304 150.687 322.239 151.039 322.103 151.366C321.966 151.693 321.761 151.987 321.5 152.228C321.24 152.468 320.931 152.65 320.594 152.76C320.257 152.87 319.9 152.907 319.548 152.867V152.867Z" fill="#6C63FF"/>
<path d="M372.869 121.323C372.806 121.599 372.765 121.88 372.747 122.162L350.749 134.853L345.402 131.775L339.702 139.237L348.638 145.606C349.36 146.12 350.229 146.387 351.116 146.365C352.002 146.344 352.857 146.035 353.553 145.486L376.236 127.591C377.26 127.97 378.375 128.028 379.433 127.758C380.49 127.488 381.441 126.902 382.157 126.079C382.874 125.256 383.323 124.234 383.444 123.149C383.566 122.064 383.354 120.968 382.838 120.006C382.321 119.045 381.524 118.263 380.553 117.766C379.581 117.268 378.481 117.078 377.399 117.221C376.317 117.364 375.304 117.833 374.494 118.566C373.685 119.298 373.118 120.26 372.869 121.323Z" fill="#FFB8B8"/>
<path d="M350.014 135.454L342.904 144.668C342.702 144.93 342.446 145.146 342.153 145.3C341.859 145.454 341.537 145.543 341.206 145.561C340.875 145.58 340.545 145.526 340.236 145.405C339.928 145.284 339.65 145.098 339.42 144.859L331.372 136.501C330.035 135.459 329.167 133.929 328.957 132.247C328.747 130.566 329.212 128.869 330.252 127.53C331.291 126.192 332.819 125.32 334.5 125.106C336.182 124.892 337.879 125.354 339.22 126.391L349.315 132.035C349.604 132.197 349.854 132.419 350.05 132.686C350.245 132.954 350.381 133.26 350.447 133.585C350.513 133.909 350.509 134.244 350.434 134.566C350.36 134.889 350.216 135.192 350.014 135.454H350.014Z" fill="#6C63FF"/>
<path d="M355.814 199.231L342.165 132.748C341.516 129.588 339.668 126.803 337.008 124.977C334.349 123.152 331.085 122.428 327.903 122.958L323.351 123.717C321.77 123.981 320.256 124.553 318.896 125.402C317.536 126.25 316.356 127.358 315.425 128.663C313.944 130.736 312.947 133.114 312.506 135.622C312.065 138.131 312.192 140.707 312.878 143.16L320.412 170.123L314.821 199.011C314.758 199.331 314.773 199.662 314.865 199.975C314.956 200.289 315.121 200.575 315.346 200.812C315.571 201.049 315.849 201.228 316.157 201.335C316.466 201.442 316.795 201.474 317.118 201.428C319.918 201.027 324.532 200.456 329.831 200.144L332.702 189.07L333.869 199.968C340.379 199.786 347.446 200.105 353.275 201.62C353.613 201.71 353.967 201.712 354.306 201.627C354.644 201.542 354.955 201.371 355.21 201.132C355.464 200.893 355.653 200.593 355.758 200.26C355.864 199.927 355.883 199.573 355.814 199.231Z" fill="#6C63FF"/>
<path d="M331.832 103.473C335.065 105.685 339.309 107.959 342.611 105.603C344.779 104.056 345.462 101.191 344.583 98.6773C343.002 94.1564 338.658 92.1661 334.505 90.6405C329.105 88.6572 323.226 87.0794 317.652 88.4997C312.078 89.9201 307.151 95.317 308.158 100.981C308.967 105.535 313.263 109.325 312.653 113.91C312.039 118.525 306.849 120.954 302.267 121.779C297.685 122.604 292.558 122.869 289.265 126.16C285.065 130.359 286.114 137.863 290.066 142.296C294.019 146.728 299.984 148.738 305.763 150.104C313.421 151.913 321.704 152.864 328.977 149.861C336.25 146.857 341.91 138.772 339.803 131.191C338.913 127.988 336.817 125.282 334.79 122.647C332.764 120.012 330.713 117.257 329.94 114.024C329.296 111.33 329.773 108.202 331.559 106.182C331.884 105.828 332.088 105.38 332.143 104.903C332.198 104.426 332.1 103.944 331.863 103.526L331.832 103.473Z" fill="#2F2E41"/>
<path d="M207.857 10.8677C209.289 10.872 210.662 11.443 211.675 12.456C212.688 13.4691 213.259 14.8418 213.263 16.2745V27.0869C213.259 28.5196 212.688 29.8923 211.675 30.9053C210.662 31.9184 209.289 32.4894 207.857 32.4937H197.044C195.612 32.4894 194.239 31.9184 193.226 30.9053C192.213 29.8923 191.642 28.5196 191.637 27.0869V16.2745C191.642 14.8418 192.213 13.4691 193.226 12.456C194.239 11.443 195.612 10.872 197.044 10.8677H207.857ZM207.857 8.70532H197.044C195.039 8.71116 193.117 9.5105 191.699 10.9287C190.28 12.347 189.481 14.2688 189.475 16.2745V27.0869C189.481 29.0926 190.28 31.0144 191.699 32.4326C193.117 33.8509 195.039 34.6502 197.044 34.6561H207.857C209.862 34.6502 211.784 33.8509 213.202 32.4326C214.621 31.0144 215.42 29.0926 215.426 27.0869V16.2745C215.42 14.2688 214.621 12.347 213.202 10.9287C211.784 9.5105 209.862 8.71116 207.857 8.70532Z" fill="#3F3D56"/>
<path d="M209.48 16.2743C209.051 16.2734 208.64 16.1023 208.337 15.7985C208.034 15.4947 207.864 15.0831 207.865 14.6542C207.865 14.2252 208.036 13.814 208.339 13.5109C208.643 13.2077 209.054 13.0375 209.483 13.0375C209.912 13.0375 210.324 13.2077 210.627 13.5109C210.93 13.814 211.101 14.2252 211.102 14.6542C211.102 15.0831 210.932 15.4947 210.629 15.7985C210.327 16.1023 209.916 16.2734 209.487 16.2743C209.484 16.2744 209.482 16.2744 209.48 16.2743Z" fill="#3F3D56"/>
<path d="M202.452 17.3554C203.307 17.3554 204.143 17.6091 204.855 18.0844C205.566 18.5596 206.12 19.2352 206.448 20.0255C206.775 20.8158 206.861 21.6855 206.694 22.5246C206.527 23.3636 206.115 24.1343 205.51 24.7392C204.905 25.3441 204.134 25.756 203.295 25.9229C202.456 26.0898 201.587 26.0042 200.796 25.6768C200.006 25.3494 199.33 24.795 198.855 24.0837C198.38 23.3724 198.126 22.5362 198.126 21.6807C198.126 20.5336 198.582 19.4334 199.393 18.6223C200.204 17.8111 201.304 17.3554 202.452 17.3554ZM202.452 15.1931C201.168 15.1931 199.914 15.5735 198.847 16.2864C197.78 16.9993 196.949 18.0125 196.458 19.198C195.967 20.3835 195.838 21.6879 196.089 22.9464C196.339 24.2049 196.957 25.3609 197.864 26.2682C198.771 27.1755 199.927 27.7934 201.186 28.0437C202.444 28.2941 203.749 28.1656 204.934 27.6746C206.12 27.1835 207.133 26.352 207.846 25.2851C208.559 24.2182 208.939 22.9639 208.939 21.6807C208.939 19.9601 208.256 18.3099 207.039 17.0933C205.822 15.8766 204.172 15.1931 202.452 15.1931V15.1931Z" fill="#3F3D56"/>
<path d="M83.555 283.554L77.4443 282.114L80.0892 257.859L89.108 259.984L83.555 283.554Z" fill="#FFB8B8"/>
<path d="M83.7175 289.844L64.0142 285.202L64.0729 284.953C64.3101 283.946 64.7434 282.996 65.348 282.156C65.9525 281.316 66.7166 280.604 67.5965 280.059C68.4764 279.515 69.4549 279.149 70.4762 278.983C71.4974 278.817 72.5414 278.853 73.5486 279.091L73.5491 279.091L85.5831 281.926L83.7175 289.844Z" fill="#2F2E41"/>
<path d="M107.367 283.759H101.089L98.1025 259.544L107.368 259.544L107.367 283.759Z" fill="#FFB8B8"/>
<path d="M108.968 289.844L88.7256 289.844V289.588C88.7256 288.553 88.9294 287.528 89.3253 286.572C89.7213 285.616 90.3016 284.748 91.0333 284.016C91.7649 283.285 92.6335 282.704 93.5895 282.308C94.5454 281.912 95.57 281.709 96.6047 281.709H96.6052L108.969 281.709L108.968 289.844Z" fill="#2F2E41"/>
<path d="M141.274 187.992C141.695 187.307 141.96 186.537 142.051 185.738C142.142 184.939 142.057 184.13 141.801 183.368C141.545 182.605 141.126 181.908 140.572 181.325C140.017 180.742 139.342 180.288 138.593 179.994L120.213 133.383L109.986 139.591L131.27 183.456C130.86 184.747 130.937 186.143 131.488 187.38C132.039 188.617 133.024 189.609 134.257 190.168C135.49 190.727 136.886 190.814 138.179 190.413C139.472 190.012 140.573 189.151 141.274 187.992Z" fill="#FFB8B8"/>
<path d="M124.119 141.092L112.436 145.416C112.104 145.539 111.749 145.589 111.395 145.563C111.042 145.536 110.698 145.434 110.388 145.263C110.078 145.091 109.808 144.855 109.597 144.57C109.386 144.285 109.239 143.958 109.166 143.611L106.608 131.458C105.989 129.753 106.07 127.873 106.834 126.228C107.599 124.584 108.984 123.31 110.687 122.685C112.389 122.061 114.27 122.137 115.917 122.897C117.563 123.657 118.841 125.038 119.471 126.739L125.426 137.592C125.596 137.903 125.698 138.247 125.723 138.601C125.749 138.954 125.698 139.309 125.574 139.641C125.45 139.973 125.256 140.275 125.005 140.525C124.754 140.775 124.452 140.969 124.119 141.092V141.092Z" fill="#6C63FF"/>
<path d="M106.95 275.066C106.92 275.066 106.889 275.066 106.858 275.065L97.9595 274.709C97.3581 274.688 96.789 274.432 96.3751 273.995C95.9613 273.558 95.7358 272.976 95.7476 272.374L96.4303 223.215C96.4331 223.017 96.3596 222.826 96.225 222.681C96.0905 222.536 95.9052 222.449 95.7078 222.437C95.5104 222.425 95.3161 222.49 95.1653 222.618C95.0145 222.746 94.9189 222.927 94.8983 223.124L89.7361 272.337C89.6824 272.838 89.4665 273.308 89.1212 273.675C88.7758 274.042 88.3201 274.286 87.8232 274.37L87.7923 274.375L79.4384 273.718C79.1091 273.769 78.7729 273.747 78.4529 273.655C78.1328 273.562 77.8366 273.402 77.5846 273.184C77.3326 272.966 77.1308 272.696 76.9931 272.393C76.8555 272.09 76.7852 271.76 76.7871 271.427L77.2866 188.071L118.279 190.666L109.241 273.013C109.177 273.577 108.909 274.097 108.487 274.476C108.064 274.854 107.518 275.064 106.95 275.066Z" fill="#2F2E41"/>
<path d="M99.4575 115.305C106.404 115.305 112.035 109.674 112.035 102.728C112.035 95.7816 106.404 90.1506 99.4575 90.1506C92.5114 90.1506 86.8804 95.7816 86.8804 102.728C86.8804 109.674 92.5114 115.305 99.4575 115.305Z" fill="#FFB8B8"/>
<path d="M116.241 194.335C116.183 194.335 116.125 194.333 116.067 194.329L78.1817 191.557C77.5928 191.515 77.0428 191.247 76.6454 190.81C76.2479 190.374 76.0333 189.801 76.0459 189.211L77.0448 141.636C76.9779 138.717 77.5073 135.815 78.6007 133.108C79.6941 130.4 81.3285 127.945 83.4038 125.891C85.4791 123.837 87.9517 122.228 90.6703 121.163C93.3889 120.098 96.2962 119.598 99.2145 119.695C102.133 119.793 105 120.484 107.642 121.728C110.284 122.972 112.644 124.742 114.578 126.929C116.512 129.117 117.979 131.676 118.89 134.45C119.801 137.224 120.136 140.155 119.875 143.063C119.212 150.395 118.685 182.427 118.54 192.069C118.53 192.673 118.284 193.249 117.854 193.673C117.424 194.097 116.845 194.335 116.241 194.335Z" fill="#6C63FF"/>
<path d="M48.7249 116.852C48.7877 117.128 48.8287 117.409 48.8474 117.692L70.845 130.382L76.1919 127.304L81.8919 134.766L72.9559 141.135C72.234 141.65 71.3647 141.916 70.4785 141.895C69.5922 141.873 68.7369 141.565 68.0409 141.016L45.3576 123.121C44.3339 123.5 43.2191 123.558 42.1615 123.288C41.1038 123.018 40.1535 122.432 39.4369 121.609C38.7202 120.785 38.2713 119.763 38.1497 118.678C38.0281 117.594 38.2396 116.498 38.7562 115.536C39.2727 114.574 40.0698 113.793 41.0414 113.295C42.013 112.798 43.113 112.608 44.1952 112.751C45.2774 112.893 46.2904 113.362 47.0996 114.095C47.9087 114.828 48.4756 115.789 48.7249 116.852Z" fill="#FFB8B8"/>
<path d="M71.1475 129.114C71.2137 128.789 71.3492 128.483 71.5446 128.216C71.74 127.948 71.9908 127.726 72.2799 127.565L82.3745 121.92C83.7157 120.886 85.4124 120.425 87.0926 120.64C88.7728 120.854 90.2996 121.726 91.3382 123.064C92.3769 124.402 92.8427 126.097 92.6337 127.778C92.4246 129.459 91.5577 130.988 90.2229 132.031L82.1744 140.389C81.9447 140.627 81.6663 140.813 81.3581 140.934C81.0499 141.056 80.7193 141.109 80.3886 141.091C80.058 141.073 79.7351 140.984 79.442 140.829C79.149 140.675 78.8925 140.46 78.6903 140.198L71.5807 130.983C71.3782 130.721 71.2347 130.419 71.16 130.096C71.0852 129.773 71.081 129.438 71.1475 129.114Z" fill="#6C63FF"/>
<path d="M105.957 112.685C104.021 112.671 102.121 112.166 100.433 111.218C98.7452 110.27 97.3251 108.91 96.3052 107.265C96.1944 107.092 95.5891 106.202 94.8881 105.173C92.9183 102.281 92.4565 101.593 92.4173 101.492C91.8842 100.117 90.1923 99.5854 88.8669 99.3819C88.6196 99.3439 88.3688 99.3104 88.1172 99.2764C86.2504 99.0264 84.3201 98.7678 83.2618 96.716C82.4854 95.2103 81.2158 89.0788 82.1909 87.5806C83.4132 85.7013 85.7604 86.3114 88.0304 86.902C89.4829 87.279 90.9845 87.6696 92.1812 87.4206C97.3681 86.3414 103.247 85.1182 108.439 88.2802C112.571 90.7961 115.057 95.5478 114.926 100.681C114.785 106.193 112.38 110.545 108.494 112.321L107.685 112.556L107.23 112.612C106.808 112.661 106.382 112.685 105.957 112.685Z" fill="#2F2E41"/>
<path d="M393.246 93.0952C390.008 93.0955 386.868 94.2102 384.354 96.252C381.841 98.2939 380.106 101.139 379.442 104.308C378.778 107.478 379.225 110.78 380.708 113.659C382.191 116.538 384.62 118.819 387.586 120.118C387.527 119.034 387.609 117.946 387.831 116.882C388.102 115.736 389.645 109.195 389.645 109.195C389.337 108.492 389.182 107.732 389.191 106.966C389.191 104.875 390.4 103.314 391.911 103.314C393.196 103.314 393.813 104.277 393.813 105.429C393.813 106.72 392.988 108.647 392.566 110.435C392.482 110.766 392.477 111.113 392.551 111.446C392.626 111.78 392.778 112.091 392.995 112.355C393.212 112.619 393.487 112.829 393.8 112.966C394.113 113.104 394.454 113.167 394.795 113.149C397.465 113.149 399.265 109.717 399.265 105.65C399.265 102.558 397.181 100.248 393.397 100.248C389.122 100.248 386.452 103.44 386.452 107.003C386.41 108.008 386.742 108.993 387.384 109.768C387.497 109.86 387.577 109.987 387.613 110.128C387.65 110.27 387.64 110.419 387.586 110.555C387.517 110.813 387.365 111.436 387.296 111.688C387.284 111.764 387.254 111.836 387.209 111.898C387.163 111.961 387.103 112.011 387.034 112.046C386.965 112.08 386.889 112.098 386.812 112.097C386.735 112.096 386.659 112.076 386.591 112.04C384.62 111.235 383.701 109.081 383.701 106.651C383.701 102.647 387.082 97.8425 393.781 97.8425C399.164 97.8425 402.709 101.74 402.709 105.921C402.709 111.455 399.63 115.585 395.097 115.585C393.573 115.585 392.144 114.76 391.653 113.829C391.653 113.829 390.835 117.077 390.658 117.707C390.333 118.777 389.856 119.795 389.242 120.729C391.181 121.302 393.222 121.451 395.224 121.166C397.227 120.881 399.145 120.169 400.848 119.078C402.551 117.987 403.999 116.542 405.095 114.842C406.19 113.142 406.907 111.226 407.197 109.224C407.487 107.222 407.344 105.182 406.776 103.24C406.208 101.299 405.229 99.5026 403.906 97.9729C402.583 96.4431 400.946 95.2158 399.107 94.3743C397.267 93.5327 395.269 93.0965 393.246 93.0952Z" fill="#3F3D56"/>
<path d="M313.826 46.8383L295.685 41.2573C295.456 41.1743 295.212 41.1374 294.968 41.1488C294.724 41.1603 294.484 41.2198 294.263 41.324C294.043 41.4282 293.844 41.575 293.68 41.756C293.516 41.937 293.389 42.1486 293.307 42.3787L287.714 60.5591C287.576 61.0521 287.632 61.5792 287.871 62.0319C288.11 62.4847 288.514 62.8286 288.998 62.9931L307.133 68.5724C307.616 68.7005 308.13 68.6331 308.564 68.3849C308.997 68.1367 309.316 67.7276 309.45 67.2462L315.043 49.0659C315.117 48.8398 315.144 48.6011 315.122 48.3643C315.1 48.1275 315.03 47.8977 314.915 47.6891C314.801 47.4804 314.646 47.2973 314.458 47.151C314.271 47.0047 314.056 46.8983 313.826 46.8383ZM294.992 60.8766L291.878 59.9186L294.857 50.237L297.97 51.195L294.992 60.8766ZM296.974 49.2771L296.952 49.2703C296.505 49.1295 296.132 48.8172 295.914 48.4019C295.697 47.9865 295.653 47.502 295.792 47.0544C295.932 46.6068 296.243 46.2327 296.657 46.014C297.072 45.7954 297.556 45.75 298.004 45.8878C298.453 46.0257 298.828 46.3355 299.048 46.7494C299.268 47.1633 299.315 47.6475 299.178 48.096C299.042 48.5445 298.733 48.9206 298.32 49.142C297.907 49.3634 297.423 49.412 296.974 49.2771ZM306.372 64.3778L303.258 63.4198L304.887 58.1261C305.277 56.8579 305.09 55.8519 303.964 55.5053C303.611 55.3997 303.233 55.4063 302.884 55.5242C302.535 55.6421 302.231 55.8654 302.013 56.1635C301.855 56.384 301.739 56.632 301.671 56.895L299.974 62.4094L296.86 61.4514L299.839 51.7698L302.953 52.7278L302.538 54.0751C302.972 53.672 303.507 53.3933 304.087 53.2684C304.666 53.1434 305.269 53.1769 305.83 53.3652C307.875 53.994 309.006 55.8171 308.113 58.7218L306.372 64.3778Z" fill="#3F3D56"/>
<path fill-rule="evenodd" clip-rule="evenodd" d="M35.808 123.496C35.8075 120.809 35.0371 118.178 33.5882 115.916C32.1392 113.653 30.0723 111.853 27.6321 110.729C25.1919 109.604 22.4807 109.203 19.8193 109.571C17.1579 109.94 14.6579 111.063 12.6152 112.809C10.5724 114.554 9.07258 116.848 8.29313 119.419C7.51368 121.99 7.48727 124.731 8.21705 127.317C8.94684 129.903 10.4022 132.225 12.411 134.01C14.4197 135.794 16.8976 136.965 19.5514 137.385V127.561H15.9806V123.496H19.5514V120.397C19.5514 116.874 21.6509 114.927 24.8621 114.927C25.9166 114.941 26.9687 115.033 28.0098 115.202V118.662H26.236C24.4905 118.662 23.9444 119.745 23.9444 120.859V123.496H27.8435L27.2208 127.562H23.9444V137.386C27.2519 136.863 30.2638 135.176 32.4386 132.629C34.6133 130.083 35.8081 126.844 35.8079 123.496L35.808 123.496Z" fill="#3F3D56"/>
<path d="M413.76 289.837C413.759 289.972 413.705 290.102 413.609 290.198C413.513 290.294 413.383 290.348 413.248 290.349H0.512079C0.376267 290.349 0.246017 290.295 0.149984 290.199C0.0539506 290.103 0 289.973 0 289.837C0 289.701 0.0539506 289.571 0.149984 289.475C0.246017 289.379 0.376267 289.325 0.512079 289.325H413.248C413.383 289.325 413.513 289.379 413.609 289.475C413.705 289.571 413.759 289.701 413.76 289.837Z" fill="#3F3D56"/>
</svg>
