<svg width="499" height="322" viewBox="0 0 499 322" fill="none" xmlns="http://www.w3.org/2000/svg">
<path d="M411.027 18.8406C411.027 18.8406 403.38 16.1096 398.463 27.0342C393.547 37.9589 385.899 49.977 385.899 49.977L390.269 51.0693C390.269 51.0693 391.361 43.4215 394.092 42.331L393.001 52.1628C393.001 52.1628 425.776 63.6339 440.524 51.0705L439.978 47.2466C439.978 47.2466 442.165 47.7937 442.165 51.0699L443.804 49.4312C443.804 49.4312 442.165 46.1537 437.249 41.7834C434.022 38.9151 432.913 33.4581 432.532 30.0465C432.246 27.1976 431.107 24.5016 429.262 22.3119C425.994 18.5255 420.041 14.5023 411.027 18.8406Z" fill="#2F2E41"/>
<path d="M431.888 138.494H164.303V319.019H431.888V138.494Z" fill="white"/>
<path d="M432.553 320.249H163.123V137.879H432.553V320.249ZM164.968 318.403H430.707V139.724H164.968V318.403Z" fill="#3F3D56"/>
<path d="M187.072 303.952H409.431V153.263H187.072V303.952Z" fill="#E5E5E5"/>
<path d="M250.235 255.368C263.125 255.368 273.575 244.919 273.575 232.029C273.575 219.139 263.125 208.689 250.235 208.689C237.345 208.689 226.896 219.139 226.896 232.029C226.896 244.919 237.345 255.368 250.235 255.368Z" fill="#3F3D56"/>
<path d="M323.424 303.955H208.928C208.784 303.957 208.64 303.945 208.498 303.921L262.65 210.123C262.98 209.539 263.46 209.053 264.04 208.715C264.62 208.377 265.279 208.199 265.95 208.199C266.621 208.199 267.28 208.377 267.86 208.715C268.44 209.053 268.919 209.539 269.25 210.123L305.595 273.063L307.336 276.075L323.424 303.955Z" fill="#6C63FF"/>
<path opacity="0.2" d="M323.425 303.952H284.332L303.522 276.076L304.904 274.068L305.595 273.064L307.336 276.076L323.425 303.952Z" fill="black"/>
<path d="M387.175 303.952H288.146L307.336 276.076L308.717 274.068L333.723 237.743C334.165 237.188 334.719 236.732 335.349 236.405C335.978 236.078 336.67 235.887 337.378 235.845C338.087 235.803 338.796 235.91 339.46 236.159C340.124 236.409 340.729 236.795 341.234 237.294C341.363 237.436 341.484 237.586 341.594 237.743L387.175 303.952Z" fill="#6C63FF"/>
<path d="M435.914 141.804C436.492 141.029 436.892 140.137 437.088 139.191C437.283 138.244 437.269 137.266 437.045 136.326C436.822 135.386 436.395 134.506 435.795 133.748C435.195 132.991 434.436 132.374 433.571 131.942L416.616 74.1679L403.705 80.4908L424.431 135.292C423.8 136.793 423.741 138.473 424.266 140.013C424.791 141.554 425.863 142.849 427.279 143.652C428.695 144.455 430.356 144.71 431.948 144.369C433.539 144.029 434.951 143.116 435.914 141.804V141.804Z" fill="#A0616A"/>
<path d="M420.457 83.8162L406.007 87.7281C405.595 87.8394 405.165 87.8607 404.745 87.7906C404.325 87.7206 403.925 87.5608 403.572 87.3222C403.219 87.0836 402.922 86.7717 402.7 86.4079C402.479 86.044 402.338 85.6367 402.288 85.2137L400.542 70.3913C399.979 68.2828 400.277 66.037 401.369 64.1478C402.462 62.2586 404.26 60.8805 406.368 60.3164C408.476 59.7524 410.722 60.0485 412.612 61.1398C414.502 62.2311 415.881 64.0282 416.447 66.1361L422.4 79.7702C422.57 80.1606 422.654 80.5831 422.647 81.009C422.639 81.4349 422.54 81.8541 422.355 82.2382C422.171 82.6222 421.906 82.962 421.579 83.2344C421.251 83.5068 420.869 83.7055 420.458 83.8168L420.457 83.8162Z" fill="#6C63FF"/>
<path d="M439.69 196.816H447.235L450.824 177.247H439.686L439.69 196.816Z" fill="#A0616A"/>
<path d="M437.766 194.353H452.627C453.87 194.353 455.101 194.598 456.25 195.073C457.399 195.549 458.443 196.246 459.322 197.126C460.201 198.005 460.898 199.048 461.374 200.197C461.85 201.346 462.095 202.577 462.095 203.82V204.129H437.767L437.766 194.353Z" fill="#2F2E41"/>
<path d="M448.447 186.324C448.36 186.324 448.271 186.319 448.183 186.311L437.742 185.551C437.32 185.511 436.912 185.376 436.551 185.154C436.189 184.933 435.883 184.631 435.657 184.272C435.43 183.914 435.289 183.508 435.244 183.087C435.2 182.665 435.252 182.239 435.398 181.841L449.371 150.448C449.471 150.167 449.511 149.87 449.49 149.573C449.469 149.277 449.386 148.988 449.248 148.725C449.111 148.458 448.918 148.224 448.684 148.037C448.449 147.851 448.178 147.716 447.887 147.642C441.317 145.924 424.459 141.351 409.866 136C403.614 133.707 399.676 130.395 398.163 126.154C396.167 120.562 399.12 115.463 399.246 115.249L399.345 115.081L413.077 116.329L427.963 117.596L460.586 135.089C463.319 136.567 465.396 139.021 466.401 141.962C467.407 144.902 467.268 148.113 466.012 150.956L450.972 184.683C450.755 185.171 450.4 185.585 449.952 185.876C449.504 186.168 448.982 186.323 448.447 186.324Z" fill="#2F2E41"/>
<path d="M415.466 54.2208C423.813 54.2208 430.58 47.454 430.58 39.1067C430.58 30.7595 423.813 23.9927 415.466 23.9927C407.118 23.9927 400.352 30.7595 400.352 39.1067C400.352 47.454 407.118 54.2208 415.466 54.2208Z" fill="#A0616A"/>
<path d="M435.383 196.2H442.927L446.517 176.632H435.378L435.383 196.2Z" fill="#A0616A"/>
<path d="M433.458 193.738H448.319C449.562 193.737 450.794 193.982 451.942 194.458C453.091 194.934 454.135 195.631 455.014 196.51C455.893 197.389 456.591 198.433 457.067 199.582C457.543 200.73 457.788 201.962 457.788 203.205V203.514H433.459L433.458 193.738Z" fill="#2F2E41"/>
<path d="M444.14 188.17C444.052 188.17 443.964 188.165 443.875 188.157L433.434 187.397C433.012 187.358 432.605 187.222 432.243 187C431.882 186.779 431.576 186.477 431.349 186.119C431.123 185.76 430.982 185.355 430.937 184.933C430.892 184.511 430.944 184.085 431.09 183.687L445.063 152.294C445.163 152.014 445.203 151.716 445.182 151.419C445.161 151.123 445.079 150.834 444.94 150.571C444.803 150.305 444.611 150.07 444.376 149.884C444.142 149.697 443.87 149.562 443.58 149.488C437.01 147.77 420.152 143.197 405.559 137.846C399.307 135.553 395.369 132.241 393.855 128C391.859 122.409 394.812 117.309 394.938 117.095L395.037 116.927L408.769 118.175L423.655 119.442L456.278 136.935C459.011 138.414 461.088 140.867 462.094 143.808C463.099 146.748 462.961 149.96 461.705 152.802L446.665 186.529C446.447 187.017 446.093 187.432 445.645 187.723C445.197 188.014 444.674 188.169 444.14 188.17Z" fill="#2F2E41"/>
<path d="M420.127 62.791L404.128 57.2527C404.128 57.2527 394.084 64.9694 398.909 84.1129C401.428 93.9914 400.694 104.419 396.817 113.847C396.35 115.014 395.812 116.151 395.205 117.251C395.205 117.251 413.051 138.789 429.666 122.789L423.204 91.7133C423.204 91.7133 433.358 71.0985 420.127 62.791Z" fill="#CBCBCB"/>
<path d="M458.936 139.035C459.302 138.14 459.467 137.176 459.42 136.211C459.372 135.246 459.114 134.303 458.663 133.448C458.212 132.593 457.578 131.848 456.808 131.265C456.038 130.681 455.149 130.274 454.204 130.071L423.352 78.3652L412.431 87.7139L446.191 135.599C445.954 137.21 446.317 138.851 447.21 140.213C448.103 141.574 449.464 142.56 451.036 142.983C452.608 143.407 454.281 143.239 455.737 142.511C457.193 141.784 458.332 140.547 458.936 139.036V139.035Z" fill="#A0616A"/>
<path d="M429.483 86.7485L416.468 94.1465C416.097 94.3569 415.686 94.4851 415.262 94.5222C414.837 94.5594 414.41 94.5047 414.009 94.3619C413.608 94.219 413.242 93.9914 412.937 93.6945C412.631 93.3976 412.393 93.0384 412.239 92.6413L406.843 78.7241C405.77 76.8228 405.496 74.5729 406.081 72.4695C406.667 70.3661 408.064 68.5814 409.965 67.5081C411.867 66.4348 414.116 66.1607 416.22 66.7462C418.323 67.3317 420.108 68.7288 421.181 70.6302L430.35 82.3449C430.613 82.6804 430.8 83.0685 430.899 83.4828C430.998 83.8971 431.006 84.3279 430.924 84.7458C430.841 85.1637 430.67 85.5589 430.421 85.9045C430.172 86.2501 429.851 86.538 429.481 86.7485H429.483Z" fill="#CBCBCB"/>
<path d="M398.235 41.9401C398.235 41.9401 405.034 34.0243 408.859 32.9321C411.152 32.2794 413.367 31.3795 415.465 30.2481C415.465 30.2481 423.06 37.3024 429.069 37.8482C435.078 38.3941 429.616 24.7409 429.616 24.7409L418.69 22.0099L408.312 23.1022L400.118 28.5648L398.235 41.9401Z" fill="#2F2E41"/>
<path d="M0 139.409C0 98.078 33.5056 0 74.8374 0C116.169 0 149.675 98.078 149.675 139.409C149.618 159.22 141.708 178.2 127.68 192.188C113.651 206.177 94.6486 214.032 74.8377 214.032C55.0268 214.032 36.0241 206.177 21.9956 192.188C7.96708 178.2 0.0574187 159.22 0.000610335 139.409H0Z" fill="#E5E5E5"/>
<path d="M74.837 321.48C74.6738 321.48 74.5173 321.415 74.4019 321.3C74.2865 321.184 74.2217 321.028 74.2217 320.865V62.8506C74.2217 62.6874 74.2865 62.5309 74.4019 62.4155C74.5173 62.3001 74.6738 62.2353 74.837 62.2353C75.0003 62.2353 75.1568 62.3001 75.2722 62.4155C75.3876 62.5309 75.4524 62.6874 75.4524 62.8506V320.865C75.4524 321.028 75.3876 321.184 75.2722 321.3C75.1568 321.415 75.0003 321.48 74.837 321.48Z" fill="#CCCCCC"/>
<path d="M74.8374 112.662C74.6742 112.662 74.5177 112.597 74.4024 112.481L44.7816 82.8611C44.6695 82.745 44.6075 82.5896 44.6089 82.4283C44.6103 82.2669 44.675 82.1126 44.7891 81.9985C44.9032 81.8844 45.0576 81.8197 45.2189 81.8183C45.3803 81.8169 45.5357 81.8789 45.6518 81.991L75.2725 111.611C75.3585 111.697 75.4171 111.807 75.4408 111.926C75.4646 112.045 75.4524 112.169 75.4058 112.282C75.3593 112.394 75.2804 112.49 75.1792 112.558C75.0781 112.625 74.9591 112.662 74.8374 112.662Z" fill="#CCCCCC"/>
<path d="M74.8374 163.94C74.7157 163.94 74.5968 163.904 74.4956 163.836C74.3944 163.769 74.3156 163.673 74.269 163.56C74.2224 163.448 74.2103 163.324 74.234 163.205C74.2577 163.085 74.3163 162.976 74.4023 162.89L124.007 113.285C124.063 113.227 124.13 113.18 124.204 113.148C124.279 113.115 124.358 113.098 124.439 113.097C124.52 113.095 124.6 113.11 124.676 113.139C124.751 113.169 124.82 113.213 124.878 113.269C124.936 113.325 124.983 113.393 125.015 113.467C125.047 113.541 125.064 113.621 125.066 113.702C125.067 113.782 125.052 113.863 125.023 113.938C124.993 114.013 124.949 114.082 124.892 114.14L124.877 114.155L75.2725 163.761C75.1571 163.876 75.0006 163.941 74.8374 163.941V163.94Z" fill="#CCCCCC"/>
<path d="M498.385 321.479H41.1661C41.0029 321.479 40.8464 321.414 40.731 321.299C40.6156 321.184 40.5508 321.027 40.5508 320.864C40.5508 320.701 40.6156 320.544 40.731 320.429C40.8464 320.313 41.0029 320.249 41.1661 320.249H498.385C498.548 320.249 498.704 320.313 498.82 320.429C498.935 320.544 499 320.701 499 320.864C499 321.027 498.935 321.184 498.82 321.299C498.704 321.414 498.548 321.479 498.385 321.479Z" fill="#E6E6E6"/>
<path d="M95.9209 274.227C95.9209 263.638 104.51 238.514 115.104 238.514C125.699 238.514 134.288 263.637 134.288 274.227C134.288 279.314 132.267 284.194 128.67 287.792C125.072 291.389 120.193 293.41 115.105 293.41C110.017 293.41 105.137 291.389 101.54 287.792C97.942 284.194 95.9209 279.314 95.9209 274.227Z" fill="#6C63FF"/>
<path d="M115.104 320.864C115.063 320.864 115.022 320.847 114.993 320.818C114.963 320.788 114.947 320.748 114.947 320.706V254.612C114.947 254.591 114.951 254.57 114.959 254.551C114.967 254.532 114.978 254.515 114.993 254.5C115.008 254.485 115.025 254.474 115.044 254.466C115.063 254.458 115.084 254.454 115.105 254.454C115.125 254.454 115.146 254.458 115.165 254.466C115.184 254.474 115.202 254.485 115.216 254.5C115.231 254.515 115.243 254.532 115.25 254.551C115.258 254.57 115.262 254.591 115.262 254.612V320.706C115.262 320.748 115.246 320.788 115.216 320.818C115.187 320.847 115.147 320.864 115.105 320.864H115.104Z" fill="#E6E6E6"/>
<path d="M115.104 267.371C115.083 267.371 115.063 267.367 115.044 267.359C115.024 267.351 115.007 267.34 114.993 267.325L107.399 259.738C107.37 259.708 107.354 259.668 107.354 259.626C107.354 259.585 107.371 259.545 107.4 259.515C107.43 259.486 107.47 259.469 107.512 259.469C107.553 259.469 107.593 259.486 107.623 259.515L115.216 267.102C115.238 267.124 115.253 267.152 115.259 267.183C115.265 267.214 115.262 267.245 115.25 267.274C115.238 267.303 115.218 267.327 115.192 267.345C115.166 267.362 115.136 267.371 115.104 267.371H115.104Z" fill="#E6E6E6"/>
<path d="M115.104 280.508C115.073 280.508 115.043 280.499 115.017 280.482C114.991 280.464 114.971 280.44 114.959 280.411C114.947 280.382 114.944 280.35 114.95 280.32C114.956 280.289 114.971 280.261 114.993 280.239L127.709 267.532C127.738 267.502 127.779 267.486 127.82 267.486C127.862 267.485 127.902 267.502 127.932 267.532C127.962 267.561 127.978 267.601 127.978 267.643C127.978 267.685 127.962 267.725 127.932 267.755L115.216 280.462C115.201 280.477 115.184 280.488 115.165 280.496C115.145 280.504 115.125 280.508 115.104 280.508Z" fill="#E6E6E6"/>
</svg>
