<svg width="472" height="302" viewBox="0 0 472 302" fill="none" xmlns="http://www.w3.org/2000/svg">
<path opacity="0.5" d="M443.545 258.45C442.693 254.936 439.897 252.289 437.839 249.315C435.365 245.648 433.919 241.385 433.651 236.969C433.384 232.554 434.305 228.148 436.319 224.209C438.299 220.443 441.402 216.549 440.278 212.436C439.526 209.67 437.027 207.774 434.572 206.29C425.248 200.674 414.485 197.906 403.608 198.327C390.276 198.872 376.988 204.196 363.914 201.559C351.181 198.98 340.392 192.597 327.07 191.839C317.118 191.275 307.275 191.909 297.303 190.82C272.664 188.147 247.844 187.554 223.106 189.048C198.369 187.555 173.551 188.147 148.914 190.82C138.967 191.909 129.119 191.275 119.147 191.839C105.785 192.592 95.0217 198.985 82.2835 201.559C69.2039 204.201 55.9214 198.872 42.5894 198.327C31.7124 197.906 20.9496 200.674 11.6249 206.29C9.15048 207.774 6.67609 209.67 5.91893 212.436C4.8005 216.544 7.89844 220.438 9.87795 224.209C11.8933 228.147 12.8163 232.553 12.5508 236.968C12.2853 241.383 10.8411 245.647 8.36857 249.315C6.30988 252.284 3.51382 254.936 2.66263 258.45C0.950349 265.517 7.81926 271.742 14.5397 274.548C32.8749 282.214 55.1741 278.507 71.9455 289.182C79.4628 293.972 86.0397 301.663 94.9475 301.95C100.97 302.143 106.448 298.797 111.709 295.853C119.581 291.446 127.81 287.709 136.309 284.683C143.733 282.041 151.596 279.923 159.43 280.799C171.391 282.12 223.096 307.101 246.405 292.339C262.37 282.219 274.821 282.135 286.812 280.794C294.646 279.918 302.504 282.036 309.932 284.678C318.432 287.705 326.661 291.441 334.533 295.848C339.788 298.792 345.272 302.138 351.294 301.945C360.202 301.658 366.779 293.967 374.296 289.177C391.058 278.497 413.352 282.209 431.702 274.543C438.388 271.728 445.262 265.522 443.545 258.45Z" fill="url(#paint0_linear)"/>
<path d="M441.12 258.307C440.279 254.842 437.512 252.21 435.478 249.27C433.036 245.641 431.611 241.425 431.35 237.059C431.089 232.692 432.002 228.336 433.994 224.442C435.973 220.716 439.022 216.865 437.913 212.803C437.166 210.066 434.696 208.19 432.272 206.725C423.05 201.171 412.406 198.432 401.649 198.847C388.465 199.381 375.326 204.652 362.39 202.039C349.79 199.495 339.131 193.171 325.932 192.423C316.089 191.869 306.335 192.493 296.497 191.434C272.129 188.79 247.582 188.204 223.116 189.682C198.65 188.204 174.103 188.79 149.736 191.434C139.898 192.513 130.144 191.884 120.3 192.423C107.107 193.166 96.4424 199.49 83.8428 202.039C70.9116 204.652 57.7676 199.381 44.5841 198.847C33.8267 198.432 23.1826 201.171 13.961 206.725C11.5361 208.21 9.06668 210.066 8.31941 212.803C7.21089 216.865 10.2989 220.721 12.2389 224.442C14.231 228.336 15.1439 232.692 14.8828 237.059C14.6217 241.425 13.1962 245.641 10.7542 249.27C8.71532 252.21 5.9539 254.828 5.11261 258.307C3.37558 265.294 10.1703 271.451 16.8066 274.202C34.9439 281.779 56.9956 278.112 73.5691 288.672C80.9923 293.408 87.5098 301.02 96.3335 301.302C102.272 301.495 107.716 298.184 112.912 295.269C120.698 290.909 128.838 287.212 137.245 284.218C144.594 281.6 152.364 279.507 160.113 280.373C171.99 281.699 223.111 306.389 246.143 291.79C261.935 281.784 274.247 281.699 286.104 280.373C293.854 279.507 301.629 281.6 308.973 284.218C317.38 287.212 325.519 290.909 333.306 295.269C338.507 298.179 343.926 301.49 349.884 301.302C358.693 301.02 365.201 293.413 372.649 288.672C389.227 278.112 411.279 281.779 429.411 274.202C436.023 271.451 442.817 265.294 441.12 258.307Z" fill="#6C63FF"/>
<path opacity="0.6" d="M18.2665 108.487C19.6819 107.992 21.1863 107.522 22.666 107.779C25.1404 108.21 26.8774 110.556 27.6148 112.966C28.3521 115.376 28.3274 117.915 28.7975 120.389C29.2676 122.863 30.391 125.422 32.6081 126.605C34.8251 127.787 37.443 127.322 39.9026 127.035C43.1285 126.663 46.3848 126.633 49.617 126.946C52.329 127.208 55.516 128.124 56.3127 130.732C56.966 132.86 55.6694 135.032 54.8281 137.086C53.2148 140.926 53.0861 145.464 54.932 149.196C56.7779 152.927 60.5192 155.708 62.083 159.648C62.5361 160.633 62.6677 161.736 62.4591 162.8C62.2278 163.545 61.8473 164.236 61.3407 164.829C60.1134 166.408 58.6486 167.798 57.5301 169.461C55.1993 172.925 54.5609 177.231 54.2936 181.393C54.0271 185.485 54.0502 189.591 54.3629 193.68C51.3244 192.691 47.9691 193.571 44.8365 192.923C38.1705 191.547 34.0086 183.659 27.2189 183.179C24.0071 182.951 20.5528 184.466 17.6875 182.996C16.3186 182.207 15.2473 180.99 14.6391 179.532C13.428 176.951 13.1516 174.029 13.8571 171.267C14.352 169.357 15.3418 167.486 15.1488 165.522C14.9855 163.839 13.9759 162.355 12.8179 161.122C9.51707 157.619 4.72664 155.476 2.35618 151.284C1.27805 149.293 0.82819 147.022 1.06582 144.771C1.30344 142.519 2.21741 140.392 3.6874 138.67C4.53344 137.844 5.33465 136.973 6.08756 136.062C7.22578 134.458 7.57219 132.434 7.72561 130.47C8.05222 125.763 7.23073 120.78 8.7698 116.207C10.1505 112.07 14.3669 109.873 18.2665 108.487Z" fill="#6C63FF"/>
<path opacity="0.6" d="M18.335 108.626C18.335 108.626 31.8501 183.684 49.3985 192.636" stroke="#535461" stroke-miterlimit="10"/>
<path opacity="0.6" d="M55.936 129.401C55.936 129.401 41.4608 131.38 27.0005 146.251" stroke="#535461" stroke-miterlimit="10"/>
<path opacity="0.6" d="M29.5446 154.971C29.5446 154.971 18.4049 144.084 1 145.93" stroke="#535461" stroke-miterlimit="10"/>
<path opacity="0.6" d="M62.3108 159.707C62.3108 159.707 41.9812 161.434 34.4541 169.238" stroke="#535461" stroke-miterlimit="10"/>
<path opacity="0.6" d="M37.4969 176.508C37.4969 176.508 26.1147 174.529 15.6084 181.234" stroke="#535461" stroke-miterlimit="10"/>
<path opacity="0.6" d="M436.681 49.5275C434.409 48.7208 431.999 47.9834 429.629 48.3942C425.67 49.087 422.879 52.8481 421.711 56.7032C420.543 60.5583 420.568 64.6707 419.815 68.6297C419.063 72.5888 417.262 76.6913 413.709 78.5916C410.155 80.492 405.959 79.7398 402.015 79.2845C396.849 78.6822 391.633 78.6275 386.456 79.1212C382.106 79.5418 377.004 81.0116 375.727 85.1884C374.683 88.603 376.756 92.0771 378.142 95.368C380.73 101.519 380.938 108.799 377.974 114.782C374.96 120.869 369.016 125.224 366.512 131.534C365.879 133.137 365.478 134.914 365.908 136.581C366.28 137.778 366.891 138.886 367.705 139.838C369.684 142.372 372.02 144.603 373.812 147.261C377.548 152.804 378.562 159.712 378.998 166.383C379.426 172.941 379.389 179.521 378.889 186.074C383.759 184.471 389.143 185.901 394.161 184.867C404.845 182.664 411.516 170.02 422.399 169.248C427.545 168.887 433.083 171.307 437.676 168.951C439.912 167.803 441.501 165.66 442.565 163.379C444.475 159.244 444.892 154.575 443.748 150.166C442.941 147.103 441.372 144.109 441.679 140.956C441.942 138.259 443.555 135.879 445.416 133.909C450.706 128.292 458.386 124.858 462.187 118.142C465.75 111.847 464.849 103.331 460.054 97.9216C458.797 96.5013 457.302 95.2839 456.204 93.7399C454.378 91.1714 453.794 87.925 453.576 84.7776C453.056 77.2307 454.338 69.2483 451.898 61.9192C449.671 55.2482 442.916 51.7198 436.681 49.5275Z" fill="#6C63FF"/>
<path opacity="0.6" d="M436.552 49.7255C436.552 49.7255 414.892 170.035 386.758 184.382" stroke="#535461" stroke-miterlimit="10"/>
<path opacity="0.6" d="M376.282 83.0256C376.282 83.0256 399.482 86.2126 422.662 110.041" stroke="#535461" stroke-miterlimit="10"/>
<path opacity="0.6" d="M418.583 124.011C418.583 124.011 436.443 106.547 464.334 109.516" stroke="#535461" stroke-miterlimit="10"/>
<path opacity="0.6" d="M366.092 131.603C366.092 131.603 398.675 134.369 410.74 146.885" stroke="#535461" stroke-miterlimit="10"/>
<path opacity="0.6" d="M405.841 158.534C405.841 158.534 424.097 155.337 440.928 166.106" stroke="#535461" stroke-miterlimit="10"/>
<path d="M38.0469 0V12.367V245.064H397.789V12.367V0H38.0469Z" fill="url(#paint1_linear)"/>
<path d="M393.979 11.12H43.3823V240.63H393.979V11.12Z" fill="white"/>
<path d="M393.979 0.203003H43.3823V17.0882H393.979V0.203003Z" fill="#EEEEEE"/>
<path d="M56.7235 12.4809C58.9838 12.4809 60.8161 10.6486 60.8161 8.3883C60.8161 6.12799 58.9838 4.29565 56.7235 4.29565C54.4632 4.29565 52.6309 6.12799 52.6309 8.3883C52.6309 10.6486 54.4632 12.4809 56.7235 12.4809Z" fill="#FF5252"/>
<path d="M67.9818 12.4809C70.2421 12.4809 72.0744 10.6486 72.0744 8.3883C72.0744 6.12799 70.2421 4.29565 67.9818 4.29565C65.7215 4.29565 63.8892 6.12799 63.8892 8.3883C63.8892 10.6486 65.7215 12.4809 67.9818 12.4809Z" fill="#FFFF00"/>
<path d="M79.2406 12.4809C81.5009 12.4809 83.3332 10.6486 83.3332 8.3883C83.3332 6.12799 81.5009 4.29565 79.2406 4.29565C76.9803 4.29565 75.1479 6.12799 75.1479 8.3883C75.1479 10.6486 76.9803 12.4809 79.2406 12.4809Z" fill="#69F0AE"/>
<path opacity="0.5" d="M187.465 44.1331H56.8169V49.5767H187.465V44.1331Z" fill="#6C63FF"/>
<path opacity="0.5" d="M187.465 55.0208H56.8169V60.4644H187.465V55.0208Z" fill="#6C63FF"/>
<path opacity="0.5" d="M187.465 65.9078H56.8169V71.3515H187.465V65.9078Z" fill="#6C63FF"/>
<path opacity="0.5" d="M187.465 76.7953H101.851V82.2389H187.465V76.7953Z" fill="#6C63FF"/>
<path opacity="0.5" d="M125.605 87.6825H56.8169V93.1262H125.605V87.6825Z" fill="#6C63FF"/>
<path opacity="0.5" d="M146.886 98.5697H93.9336V104.013H146.886V98.5697Z" fill="#6C63FF"/>
<path opacity="0.5" d="M358.693 82.239H204.786V170.822H358.693V82.239Z" fill="#6C63FF"/>
<path d="M377.004 90.6517H223.097V179.235H377.004V90.6517Z" fill="#EEEEEE"/>
<path opacity="0.5" d="M469.536 172.376C469.855 171.967 470.029 171.464 470.03 170.946C470.03 170.946 470.03 170.916 470.03 170.906C470.03 170.896 470.06 170.802 470.075 170.753V170.688C470.077 170.64 470.077 170.593 470.075 170.545C470.075 170.545 470.075 170.505 470.075 170.485C470.08 170.426 470.08 170.366 470.075 170.307C469.783 168.328 458.02 155.431 455.08 139.699C454.755 137.986 454.27 136.308 453.63 134.686C453.721 133.875 453.667 133.054 453.472 132.261C452.977 130.247 451.987 128.203 452.482 126.194C452.551 125.931 452.642 125.674 452.754 125.427C453.371 124.52 453.938 123.58 454.452 122.611C454.643 122.295 454.809 121.964 454.947 121.621C456.753 116.86 451.161 111.946 452.19 106.978C452.635 104.825 454.303 102.944 454.259 100.752C454.204 98.2431 451.898 96.2982 449.503 95.3678C447.108 94.4375 444.47 94.1702 442.119 93.131C436.968 90.8496 434.147 85.3416 429.445 82.2783C423.472 78.3935 415.678 79.0863 408.517 80.091C408.281 80.1256 408.058 80.2177 407.866 80.3593C407.675 80.5008 407.521 80.6874 407.418 80.9025H407.349C407.295 81.0609 407.23 81.2143 407.161 81.3677C406.171 83.0553 404.504 84.337 402.856 85.5198C400.847 86.9351 398.694 88.3307 397.466 90.4289C397.283 90.7407 397.13 91.0376 396.996 91.3247C394.324 96.0903 397.536 98.149 401.45 99.2922C401.333 99.9739 401.273 100.664 401.272 101.356C401.272 108.284 407.067 113.941 414.208 113.941C414.772 113.94 415.336 113.904 415.896 113.832L416.311 114.104H416.405C417.732 115.059 418.88 116.257 419.375 117.682L415.228 120.849C415.228 120.849 415.396 121.285 415.643 121.977L399.342 129.49C393.166 129.777 383.169 110.323 383.169 110.323C383.169 110.323 381.685 99.1685 376.404 97.1642C374.811 96.5605 374.178 97.8224 374.069 99.8811C371.708 102.356 375.672 116.252 375.672 116.252L388.316 138.566C389.494 140.852 389.801 142.282 395.373 143.143C399.961 143.846 414.253 138.769 419.226 136.928L419.459 138.907C418.881 140.416 418.625 142.029 418.707 143.643C418.707 147.29 420.335 152.596 428.283 156.822C428.283 156.822 436.488 167.427 435.577 177.438C435.577 177.438 435.973 177.854 436.606 178.398C436.517 181.219 436.111 184.698 434.691 186.054C434.597 186.143 434.528 186.254 434.489 186.377C434.45 186.5 434.443 186.631 434.469 186.757C434.438 186.905 434.455 187.059 434.517 187.197C434.58 187.334 434.684 187.449 434.815 187.524L424.457 205.661C424.071 206.156 423.68 206.651 423.279 207.146C421.357 209.597 419.222 211.874 416.9 213.951C415.173 215.49 413.377 217.172 413.02 217.801C412.471 218.79 411.09 221.982 411.674 224.62C412.43 227.818 412.74 231.106 412.595 234.389L411.254 257.851C410.804 260.47 410.184 263.057 409.398 265.596H409.195C409.195 265.596 404.197 271.604 396.259 273.019C388.321 274.434 388.613 278.463 390.964 279.027C393.314 279.591 421.839 278.453 421.839 278.453C421.839 278.453 422.918 276.35 422.621 274.43C431.727 273.554 444.341 272.069 444.341 272.069C444.341 272.069 446.068 267.917 443.559 266.106C442.615 265.38 441.914 264.384 441.55 263.25C441.402 262.617 441.238 261.894 441.08 261.137C441.04 260.766 441.04 260.538 441.04 260.538H440.956C440.516 258.326 440.165 255.956 440.367 254.714C441.105 251.423 443.015 232.4 438.309 226.966C436.171 224.491 436.463 221.68 437.413 219.335C443.06 215.638 450.958 207.685 455.526 202.875C455.783 203.088 456.02 203.301 456.243 203.514L456.392 203.657C456.392 203.657 471.936 195.962 472 182.377C472.024 178.89 471.177 175.452 469.536 172.376ZM419.746 268.204C419.718 267.708 419.736 267.211 419.8 266.719L419.305 266.665C419.592 264.507 420.295 262.092 421.869 260.424C424.571 255.53 426.482 250.239 427.53 244.747L430.386 255.55C430.386 255.55 430.673 257.787 430.752 260.152H430.702C430.702 260.152 426.719 265.838 419.746 268.204Z" fill="url(#paint2_linear)"/>
<path d="M432.653 128.282C432.653 128.282 425.67 130.796 421.765 134.988C421.765 134.988 402.767 142.53 397.457 141.694C392.147 140.857 391.87 139.457 390.751 137.24L378.736 115.465C378.736 115.465 373.708 97.303 378.736 99.2578C383.764 101.213 385.169 112.125 385.169 112.125C385.169 112.125 394.671 131.123 400.535 130.846L416.445 123.264C416.445 123.264 420.078 117.954 421.755 118.236C423.433 118.518 432.653 128.282 432.653 128.282Z" fill="#FDB797"/>
<g opacity="0.05">
<path opacity="0.05" d="M432.653 128.282C432.653 128.282 425.67 130.796 421.765 134.988C421.765 134.988 402.767 142.53 397.457 141.694C392.147 140.857 391.87 139.457 390.751 137.24L378.736 115.465C378.736 115.465 373.708 97.303 378.736 99.2578C383.764 101.213 385.169 112.125 385.169 112.125C385.169 112.125 394.671 131.123 400.535 130.846L416.445 123.264C416.445 123.264 420.078 117.954 421.755 118.236C423.433 118.518 432.653 128.282 432.653 128.282Z" fill="black"/>
</g>
<path d="M421.181 117.984L415.609 122.359C415.609 122.359 418.395 129.648 417.697 132.202C417 134.755 428.842 128.193 428.842 128.193L423.967 117.256L421.181 117.984Z" fill="#F9CE43"/>
<g opacity="0.05">
<path opacity="0.05" d="M421.181 117.984L415.609 122.359C415.609 122.359 418.395 129.648 417.697 132.202C417 134.755 428.842 128.193 428.842 128.193L423.967 117.256L421.181 117.984Z" fill="black"/>
</g>
<path d="M411.562 113.114C411.562 113.114 423.993 117.167 418.267 124.289L436.147 115.628C436.147 115.628 428.605 116.187 423.854 104.741L411.562 113.114Z" fill="#FDB797"/>
<path d="M435.028 186.039L419.662 213.698L430.005 253.912C430.005 253.912 431.123 262.854 429.445 263.691H441.179C441.179 263.691 438.917 255.773 439.501 253.076C440.199 249.864 442.015 231.301 437.522 225.976C433.028 220.651 439.759 213.683 439.759 213.683L453.17 192.448L435.028 186.039Z" fill="#FDB797"/>
<g opacity="0.05">
<path opacity="0.05" d="M435.028 186.039L419.662 213.698L430.005 253.912C430.005 253.912 431.123 262.854 429.445 263.691H441.179C441.179 263.691 439.086 255.728 439.501 253.076C439.917 250.423 442.015 231.301 437.522 225.976C433.028 220.651 439.759 213.683 439.759 213.683L453.17 192.448L435.028 186.039Z" fill="black"/>
</g>
<path d="M430.302 258.426C430.302 258.426 426.046 264.696 418.623 266.685C411.199 268.674 411.803 272.554 414.075 272.93C416.346 273.307 443.272 270.045 443.272 270.045C443.272 270.045 444.91 265.992 442.53 264.221C440.15 262.449 440.135 258.777 440.135 258.777L430.302 258.426Z" fill="#0D134D"/>
<g opacity="0.1">
<path opacity="0.1" d="M435.869 174.86C435.869 174.86 436.532 183.946 434.112 186.332C434.028 186.411 433.963 186.509 433.924 186.618C433.884 186.727 433.871 186.843 433.886 186.958C433.9 187.073 433.942 187.183 434.007 187.279C434.072 187.375 434.159 187.454 434.261 187.509L441.456 191.345L447.89 179.052L435.869 174.86Z" fill="black"/>
</g>
<path d="M435.869 174.583C435.869 174.583 436.532 183.669 434.112 186.054C434.028 186.133 433.963 186.232 433.924 186.341C433.884 186.45 433.871 186.566 433.886 186.681C433.9 186.796 433.942 186.906 434.007 187.002C434.072 187.098 434.159 187.177 434.261 187.232L441.456 191.068L447.89 178.775L435.869 174.583Z" fill="#E23553"/>
<g opacity="0.1">
<path opacity="0.1" d="M435.869 175.078C435.869 175.078 436.532 184.164 434.112 186.549C434.028 186.628 433.963 186.726 433.924 186.835C433.884 186.944 433.871 187.061 433.886 187.176C433.9 187.291 433.942 187.401 434.007 187.497C434.072 187.593 434.159 187.671 434.261 187.727L441.456 191.562L447.89 179.27L435.869 175.078Z" fill="black"/>
</g>
<path d="M436.146 192.463C436.146 192.463 431.994 195.234 423.28 206.641C421.457 209.03 419.429 211.254 417.217 213.288C415.579 214.772 413.872 216.435 413.53 217.049C413.006 217.994 411.694 221.136 412.254 223.71C412.972 226.836 413.267 230.046 413.13 233.251L411.858 256.169C411.858 256.169 410.18 266.507 407.948 267.625L419.405 269.605C419.405 269.605 418.568 262.34 421.919 258.717C421.919 258.717 429.743 245.306 427.788 230.217C427.788 230.217 426.952 223.512 434.494 219.879C442.035 216.247 457.406 198.644 457.406 198.644L436.146 192.463Z" fill="#FDB797"/>
<path d="M409.883 263.711C409.883 263.711 405.132 269.58 397.59 270.976C390.048 272.371 390.326 276.286 392.562 276.845C394.799 277.404 421.899 276.286 421.899 276.286C421.899 276.286 423.878 272.376 421.622 270.416C419.365 268.457 419.944 264.829 419.944 264.829L409.883 263.711Z" fill="#0D134D"/>
<g opacity="0.1">
<path opacity="0.1" d="M443.133 177.656C443.133 177.656 439.724 189.108 435.403 192.443C435.323 192.503 435.261 192.584 435.223 192.676C435.185 192.768 435.172 192.87 435.187 192.968C435.202 193.067 435.243 193.16 435.306 193.238C435.37 193.315 435.453 193.374 435.547 193.408C439.12 194.71 450.601 199.094 454.59 203.083L454.728 203.222C454.728 203.222 478.616 191.067 465.764 170.391L443.133 177.656Z" fill="black"/>
</g>
<path d="M443.133 177.379C443.133 177.379 439.724 188.83 435.403 192.166C435.323 192.226 435.261 192.306 435.223 192.399C435.185 192.491 435.172 192.592 435.187 192.691C435.202 192.79 435.243 192.883 435.306 192.961C435.37 193.038 435.453 193.097 435.547 193.131C439.12 194.432 450.601 198.817 454.59 202.806L454.728 202.944C454.728 202.944 478.616 190.79 465.764 170.114L443.133 177.379Z" fill="#E23553"/>
<g opacity="0.1">
<path opacity="0.1" d="M423.517 120.597C421.742 121.791 419.801 122.718 417.757 123.348L419.677 140.437C419.677 140.437 415.188 150.483 428.026 157.5C428.026 157.5 435.82 167.858 434.954 177.637C434.954 177.637 439.136 182.12 441.932 181.007C444.728 179.893 442.209 181.566 442.768 181.289C443.327 181.012 444.441 183.531 453.106 181.314C461.771 179.096 467.952 173.252 467.66 171.292C467.368 169.333 456.243 156.733 453.487 141.357C450.731 125.981 434.276 115.044 434.276 115.044C434.276 115.044 433.732 115.346 432.791 115.747C429.575 117.112 426.473 118.734 423.517 120.597Z" fill="black"/>
</g>
<g opacity="0.1">
<path opacity="0.1" d="M435.186 192.547C435.175 192.667 435.205 192.787 435.271 192.888C435.336 192.99 435.433 193.066 435.547 193.106C438.625 194.23 447.572 197.64 452.541 201.114C448.24 197.64 439.09 194.032 435.186 192.547Z" fill="black"/>
<path opacity="0.1" d="M465.764 170.115L465.269 170.283C476.25 189.479 455.569 201.074 453.763 202.039C454.075 202.296 454.357 202.534 454.614 202.806L454.753 202.945C454.753 202.945 478.616 190.791 465.764 170.115Z" fill="black"/>
</g>
<path d="M453.19 180.73C444.529 182.966 443.411 180.452 442.852 180.73C442.292 181.007 444.831 179.334 442.015 180.452C439.199 181.571 435.033 177.097 435.033 177.097C435.072 176.602 435.092 176.142 435.092 175.662C435.122 166.319 428.025 156.98 428.025 156.98C415.158 149.998 419.642 139.937 419.642 139.937L419.117 135.354L417.677 122.854C419.719 122.22 421.656 121.289 423.428 120.092C426.379 118.224 429.475 116.596 432.687 115.223C433.632 114.817 434.172 114.515 434.172 114.515C434.172 114.515 450.656 125.402 453.472 140.778C456.288 156.154 467.442 168.719 467.719 170.674C467.996 172.628 461.85 178.493 453.19 180.73Z" fill="#F9CE43"/>
<g opacity="0.1">
<path opacity="0.1" d="M424.131 105.013L411.838 113.396C413.533 113.984 415.144 114.788 416.634 115.787C420.82 115.198 423.384 112.199 425.111 108.507C424.438 107.428 424.735 106.463 424.131 105.013Z" fill="black"/>
</g>
<path d="M414.634 115.633C421.423 115.633 426.927 110.129 426.927 103.34C426.927 96.5513 421.423 91.0476 414.634 91.0476C407.845 91.0476 402.341 96.5513 402.341 103.34C402.341 110.129 407.845 115.633 414.634 115.633Z" fill="#FDB797"/>
<g opacity="0.1">
<path opacity="0.1" d="M455.145 179.334C446.485 181.571 445.366 179.057 444.807 179.334C444.248 179.611 446.787 177.938 443.971 179.057C441.155 180.175 436.988 175.701 436.988 175.701C437.028 175.206 437.047 174.746 437.047 174.266C437.082 164.938 430 155.585 430 155.585C417.134 148.602 421.617 138.541 421.617 138.541L421.097 133.953L419.737 122.121C419.079 122.417 418.399 122.66 417.703 122.848L419.118 135.354L419.648 139.936C419.648 139.936 415.194 149.997 428.031 156.98C428.031 156.98 435.112 166.333 435.078 175.662C435.078 176.157 435.078 176.617 435.018 177.097C435.018 177.097 439.21 181.551 442.001 180.452C444.792 179.353 442.278 181.011 442.837 180.729C443.397 180.447 444.515 182.966 453.175 180.729C457.104 179.713 460.786 177.91 463.998 175.429C461.274 177.194 458.285 178.512 455.145 179.334Z" fill="black"/>
</g>
<path d="M431.955 130.717C431.955 130.717 424.972 133.231 421.068 137.423C421.068 137.423 402.069 144.965 396.759 144.128C391.449 143.292 391.172 141.891 390.054 139.674L378.038 117.9C378.038 117.9 373.01 99.7377 378.038 101.692C383.066 103.647 384.471 114.559 384.471 114.559C384.471 114.559 393.973 133.558 399.837 133.281L415.753 125.689C415.753 125.689 419.385 120.379 421.063 120.661C422.74 120.943 431.955 130.717 431.955 130.717Z" fill="#FDB797"/>
<g opacity="0.1">
<path opacity="0.1" d="M422.522 120.488C422.522 120.488 416.727 119.958 415.05 127.223C413.372 134.488 427.917 138.957 427.917 138.957L435.741 128.069L422.522 120.488Z" fill="black"/>
</g>
<path d="M422.805 120.488C422.805 120.488 417.01 119.958 415.332 127.223C413.654 134.488 428.199 138.957 428.199 138.957L436.023 128.069L422.805 120.488Z" fill="#F9CE43"/>
<g opacity="0.1">
<path opacity="0.1" d="M420.44 121.78C419.563 122.222 418.645 122.576 417.699 122.839L417.748 123.259C418.671 122.814 419.57 122.32 420.44 121.78Z" fill="black"/>
<path opacity="0.1" d="M467.72 170.674C467.443 168.694 456.264 156.144 453.473 140.778C450.682 125.412 434.172 114.515 434.172 114.515C434.172 114.515 433.628 114.817 432.688 115.223C430.177 116.301 427.734 117.533 425.374 118.91C426.941 118.085 428.541 117.323 430.174 116.623C431.119 116.217 431.658 115.916 431.658 115.916C431.658 115.916 448.143 126.803 450.959 142.179C453.775 157.555 464.929 170.12 465.206 172.074C465.384 173.307 463.004 176.093 459.05 178.547C464.479 175.85 467.933 172.149 467.72 170.674Z" fill="black"/>
</g>
<path opacity="0.1" d="M426.125 120.602C426.125 120.602 433.351 124.18 434.712 131.059" stroke="black" stroke-miterlimit="10"/>
<g opacity="0.1">
<path opacity="0.1" d="M408.458 102.648C409.611 102.905 410.898 103.266 411.467 104.301C411.878 105.053 411.803 105.998 412.204 106.775C413.234 108.715 416.252 108.047 418.143 109.185C421.607 111.273 419.345 117.786 422.795 119.884C423.443 120.28 424.21 120.439 424.878 120.8C427.793 122.393 427.382 126.61 426.858 129.891C426.333 133.172 426.957 137.66 430.247 138.126C432.059 138.378 434.093 137.18 435.617 138.185C436.414 138.71 436.775 139.67 437.443 140.367C437.902 140.825 438.485 141.139 439.119 141.27C439.754 141.401 440.413 141.343 441.016 141.105C442.134 140.64 442.941 139.576 444.104 139.234C445.975 138.685 448.063 140.199 449.864 139.501C451.666 138.804 452.077 136.201 451.611 134.236C451.146 132.271 450.196 130.277 450.691 128.297C451.102 126.664 452.438 125.417 453.022 123.843C454.734 119.196 449.424 114.396 450.404 109.541C450.829 107.438 452.413 105.582 452.383 103.459C452.334 100.985 450.142 99.1094 447.86 98.1988C445.579 97.2882 443.075 97.0309 440.843 96.0164C435.948 93.7895 433.271 88.4052 428.797 85.4161C426.794 84.1084 424.535 83.2414 422.171 82.8724C419.12 82.3814 416 82.5467 413.018 83.3574C410.037 84.1681 407.262 85.6056 404.88 87.5738C404.44 87.9301 403.989 88.2666 403.534 88.5932C401.624 89.9739 399.575 91.3349 398.412 93.3837C394.166 100.777 403.92 101.623 408.458 102.648Z" fill="black"/>
</g>
<path d="M408.805 101.95C409.958 102.207 411.245 102.568 411.814 103.603C412.224 104.355 412.15 105.3 412.551 106.077C413.58 108.017 416.599 107.349 418.49 108.487C421.954 110.576 419.692 117.088 423.141 119.186C423.79 119.582 424.557 119.741 425.225 120.102C428.14 121.695 427.729 125.912 427.204 129.193C426.68 132.474 427.303 136.962 430.594 137.428C432.406 137.68 434.439 136.482 435.964 137.487C436.76 138.012 437.122 138.972 437.79 139.669C438.249 140.127 438.831 140.441 439.466 140.572C440.101 140.703 440.76 140.646 441.363 140.407C442.481 139.942 443.288 138.878 444.451 138.536C446.321 137.987 448.41 139.501 450.211 138.803C452.013 138.106 452.423 135.503 451.958 133.538C451.493 131.573 450.543 129.579 451.038 127.599C451.448 125.966 452.785 124.719 453.369 123.146C455.081 118.499 449.771 113.698 450.751 108.844C451.176 106.74 452.76 104.885 452.73 102.761C452.681 100.287 450.488 98.4115 448.207 97.5009C445.926 96.5903 443.421 96.333 441.19 95.3185C436.295 93.0916 433.618 87.7073 429.144 84.7182C427.327 83.5251 425.292 82.7011 423.156 82.2933C420.012 81.6901 416.773 81.789 413.671 82.5829C410.569 83.3768 407.68 84.8461 405.212 86.8858C404.776 87.2371 404.326 87.5737 403.881 87.8755C401.971 89.2562 399.922 90.6172 398.759 92.666C394.513 100.079 404.272 100.93 408.805 101.95Z" fill="#6C63FF"/>
<path d="M309.206 179.235H223.097V163.008C244.134 153.175 276.504 147.652 309.206 179.235Z" fill="#6C63FF"/>
<g opacity="0.1">
<path opacity="0.1" d="M376.014 176.914V179.235H268.625V178.74C268.625 178.74 321.468 127.288 376.014 176.914Z" fill="black"/>
</g>
<path d="M377.003 176.914V179.235H269.615V178.74C269.615 178.74 322.458 127.288 377.003 176.914Z" fill="#6C63FF"/>
<path d="M240.911 114.406C245.284 114.406 248.829 110.861 248.829 106.488C248.829 102.115 245.284 98.5697 240.911 98.5697C236.538 98.5697 232.993 102.115 232.993 106.488C232.993 110.861 236.538 114.406 240.911 114.406Z" fill="#6C63FF"/>
<path d="M308.325 100.5C307.419 100.5 306.409 100.5 305.722 100.554C305.414 100.571 305.111 100.633 304.821 100.737L300.164 102.41C303.925 102.504 307.85 102.474 311.705 102.445L333.321 102.276C335.528 102.276 337.844 102.237 339.68 102.108C340.912 102.019 341.818 101.89 342.956 101.791C347.049 101.425 353.012 101.494 358.342 101.514C363.672 101.534 370.105 101.395 371.981 100.861H360.539C359.307 100.861 358.01 100.861 356.922 100.802C355.65 100.727 354.873 100.589 353.754 100.49C351.904 100.331 349.35 100.312 346.975 100.302C333.935 100.247 321.058 100.554 308.325 100.5Z" fill="#F4F4F4"/>
<path d="M321.133 110.091C320.935 110.091 320.717 110.091 320.569 110.091C320.501 110.094 320.434 110.107 320.371 110.13L319.381 110.491C320.197 110.491 321.044 110.491 321.88 110.491L326.562 110.457C327.056 110.457 327.551 110.457 327.937 110.422C328.205 110.422 328.402 110.373 328.645 110.353C329.531 110.274 330.822 110.289 331.98 110.294C332.972 110.327 333.966 110.279 334.95 110.15H332.475C332.208 110.15 331.926 110.15 331.693 110.15C331.461 110.15 331.248 110.105 331.006 110.081C330.605 110.046 330.05 110.041 329.521 110.041C326.7 110.041 323.909 110.105 321.133 110.091Z" fill="#F4F4F4"/>
<path d="M287.974 123.947C287.776 123.947 287.558 123.947 287.41 123.947C287.342 123.95 287.276 123.964 287.212 123.987L286.222 124.348C287.039 124.348 287.885 124.348 288.721 124.348L293.403 124.313C293.898 124.313 294.393 124.313 294.779 124.279C295.046 124.279 295.244 124.229 295.486 124.209C296.372 124.13 297.664 124.145 298.822 124.15C299.814 124.183 300.807 124.135 301.791 124.006H299.317C299.049 124.006 298.767 124.006 298.535 124.006C298.302 124.006 298.089 123.962 297.847 123.937C297.446 123.903 296.892 123.898 296.362 123.898C293.541 123.898 290.75 123.962 287.974 123.947Z" fill="#F4F4F4"/>
<path d="M269.373 174.845H265.652C265.652 174.845 264.489 134.146 269.373 121.586H270.304C270.304 121.586 267.047 167.635 269.373 174.845Z" fill="#6C63FF"/>
<path d="M266.814 119.493C266.814 119.493 263.791 127.866 265.186 131.588C265.186 131.588 267.279 123.912 269.719 122.749C272.159 121.586 274.717 131.588 274.717 131.588C274.717 131.588 276.113 125.308 273.554 120.206C273.554 120.206 278.672 122.997 281.23 128.346C281.23 128.346 281.695 124.882 275.648 117.647C275.648 117.647 280.997 119.043 284.486 122.299C284.486 122.299 285.649 119.741 278.439 115.554C278.439 115.554 279.369 112.53 284.952 113.926C284.952 113.926 284.952 109.967 276.113 110.669C276.113 110.669 276.113 108.111 281.928 108.576C281.928 108.576 281.928 105.32 275.183 106.483C275.183 106.483 276.578 104.389 277.509 103.924C276.345 103.817 275.183 104.149 274.252 104.855C274.252 104.855 274.485 100.668 270.996 99.0398L270.531 104.855C270.531 104.855 266.621 100.247 267.507 101.133C267.74 101.366 268.437 104.157 268.205 105.552C268.205 105.552 264.246 102.296 259.366 105.785C259.366 105.785 265.414 106.25 266.344 108.344C266.344 108.344 261.227 107.413 260.064 108.111C260.064 108.111 264.023 109.506 263.786 110.437C263.786 110.437 256.808 110.437 255.868 112.995C255.868 112.995 263.078 113.926 263.543 114.624C263.543 114.624 255.17 120.671 254.705 122.299C254.705 122.299 263.311 117.182 264.706 117.182C266.102 117.182 258.426 124.605 258.891 126.486C258.911 126.471 265.211 119.028 266.814 119.493Z" fill="#6C63FF"/>
<path d="M315.272 173.321H318.113C318.113 173.321 319.004 142.228 315.272 132.632H314.56C314.56 132.632 317.054 167.803 315.272 173.321Z" fill="#6C63FF"/>
<path d="M317.227 131.034C317.227 131.034 319.538 137.433 318.469 140.273C318.469 140.273 316.871 134.409 315.005 133.523C313.139 132.637 311.185 140.273 311.185 140.273C311.185 140.273 310.121 135.478 312.075 131.568C309.574 133.049 307.542 135.205 306.211 137.789C306.211 137.789 305.855 135.121 310.477 129.613C310.477 129.613 306.389 130.677 303.727 133.167C303.727 133.167 302.836 131.212 308.349 128.015C308.349 128.015 307.636 125.704 303.375 126.773C303.375 126.773 303.375 123.754 310.126 124.298C310.126 124.298 310.126 122.344 305.672 122.7C305.672 122.7 305.672 120.226 310.823 121.102C310.823 121.102 309.759 119.503 309.047 119.147C309.932 119.069 310.814 119.323 311.521 119.859C311.521 119.859 311.343 116.663 313.996 115.406L314.352 119.859C314.352 119.859 317.321 116.341 316.663 117.019C316.237 118.09 316.055 119.243 316.129 120.394C316.129 120.394 319.147 117.919 322.879 120.572C322.879 120.572 318.256 120.928 317.549 122.527C317.549 122.527 321.458 121.814 322.344 122.349C322.344 122.349 319.325 123.413 319.504 124.125C319.504 124.125 324.833 124.125 325.546 126.08C325.546 126.08 320.038 126.793 319.682 127.322C319.682 127.322 326.081 131.944 326.432 133.186C326.432 133.186 319.86 129.277 318.791 129.277C317.722 129.277 323.586 134.963 323.245 136.383C323.27 136.364 318.474 130.687 317.227 131.034Z" fill="#6C63FF"/>
<path d="M349.286 167.244H351.047C351.047 167.244 351.597 147.988 349.286 142.045H348.845C348.845 142.045 350.384 163.844 349.286 167.244Z" fill="#6C63FF"/>
<path d="M350.498 141.055C350.498 141.055 351.928 145.014 351.27 146.776C351.27 146.776 350.28 143.143 349.122 142.594C347.964 142.045 346.756 146.776 346.756 146.776C346.756 146.776 346.098 143.807 347.306 141.382C345.757 142.298 344.498 143.632 343.673 145.232C343.673 145.232 343.456 143.579 346.316 140.169C344.781 140.596 343.355 141.347 342.134 142.371C342.134 142.371 341.585 141.159 344.995 139.179C344.995 139.179 344.554 137.749 341.912 138.407C341.912 138.407 341.912 136.537 346.093 136.868C346.093 136.868 346.093 135.656 343.342 135.879C343.342 135.879 343.342 134.34 346.534 134.889C346.239 134.425 345.868 134.015 345.435 133.676C345.985 133.626 346.534 133.783 346.974 134.117C346.974 134.117 346.865 132.137 348.513 131.365L348.731 134.117C348.731 134.117 350.582 131.939 350.161 132.355C349.898 133.018 349.784 133.731 349.83 134.443C350.441 133.998 351.183 133.767 351.939 133.787C352.695 133.806 353.424 134.075 354.011 134.552C354.011 134.552 351.151 134.77 350.711 135.765C350.711 135.765 353.131 135.324 353.68 135.656C353.68 135.656 351.809 136.314 351.918 136.755C351.918 136.755 355.219 136.755 355.659 137.967C355.659 137.967 352.25 138.407 352.027 138.739C352.027 138.739 355.986 141.599 356.209 142.371C356.209 142.371 352.136 139.951 351.478 139.951C350.819 139.951 354.447 143.475 354.229 144.351C354.239 144.356 351.265 140.832 350.498 141.055Z" fill="#6C63FF"/>
<path d="M284.952 145.469L284.581 143.49C284.58 143.344 284.55 143.2 284.492 143.067C284.434 142.933 284.35 142.813 284.244 142.713L282.527 141.872C282.4 141.723 282.297 141.556 282.22 141.377L282.25 141.332C282.344 141.215 282.412 141.078 282.448 140.931C282.451 140.894 282.451 140.855 282.448 140.818H282.472C282.631 140.839 282.792 140.8 282.923 140.708C283.054 140.616 283.146 140.479 283.18 140.323V140.278C283.15 140.412 283.077 140.532 282.973 140.621C282.868 140.711 282.738 140.764 282.601 140.773C282.84 140.613 283.036 140.396 283.172 140.143C283.307 139.889 283.378 139.606 283.378 139.318C283.378 139.318 283.378 139.269 283.378 139.244C283.454 139.197 283.519 139.135 283.569 139.062C283.62 138.989 283.654 138.906 283.67 138.818V138.774C283.649 138.857 283.612 138.935 283.56 139.003C283.508 139.071 283.443 139.127 283.368 139.17C283.356 139 283.32 138.834 283.259 138.675H283.304C283.473 138.675 283.636 138.607 283.755 138.488C283.875 138.368 283.942 138.206 283.942 138.036C283.942 138.036 283.942 138.007 283.942 137.992C283.931 138.152 283.86 138.303 283.742 138.413C283.625 138.523 283.47 138.585 283.309 138.586H283.23V138.556C283.419 138.499 283.589 138.389 283.719 138.239C283.848 138.089 283.933 137.906 283.962 137.71C283.962 137.71 283.962 137.68 283.962 137.665C283.954 137.789 283.909 137.908 283.833 138.007C283.842 137.848 283.791 137.692 283.69 137.569C283.59 137.446 283.447 137.365 283.29 137.341C283.133 137.318 282.973 137.354 282.841 137.442C282.709 137.53 282.615 137.665 282.576 137.819L282.463 137.754C282.498 137.627 282.573 137.514 282.675 137.43C282.778 137.347 282.905 137.298 283.037 137.289H282.992C282.858 137.288 282.728 137.329 282.618 137.406C282.509 137.484 282.427 137.593 282.383 137.72C282.001 137.542 281.567 137.508 281.162 137.624C280.756 137.741 280.406 137.999 280.176 138.353C280.043 138.452 279.869 138.596 279.874 138.719C279.817 138.777 279.766 138.84 279.721 138.907C279.533 139.321 279.464 139.778 279.523 140.229C279.55 140.452 279.523 140.68 279.444 140.891C279.365 141.102 279.236 141.291 279.068 141.441C279.141 141.472 279.22 141.488 279.3 141.488C279.38 141.488 279.459 141.472 279.533 141.441C279.68 141.379 279.818 141.297 279.944 141.199C280.061 141.127 280.16 141.031 280.236 140.917V140.892C280.318 140.947 280.406 140.993 280.498 141.03C280.533 141.327 280.542 141.669 280.409 141.783L280.434 141.728C280.115 141.968 279.718 142.081 279.32 142.045C279.08 142.058 278.848 142.134 278.646 142.264C278.444 142.394 278.279 142.574 278.167 142.787L277.628 145.039V145.078V145.118C277.636 145.148 277.652 145.176 277.675 145.198C277.697 145.22 277.726 145.235 277.756 145.242L277.925 145.286C277.95 145.671 277.911 146.057 277.811 146.429C277.698 146.984 277.633 147.547 277.618 148.112C277.657 148.394 277.727 149.864 277.761 150.562C277.701 150.8 277.653 151.041 277.618 151.284L276.821 156.065C276.821 156.065 276.227 159.89 276.257 161.048L276.153 161.716C276.153 161.716 274.535 163.745 275.01 164.032C275.485 164.319 276.217 164.443 276.915 163.364C277.01 163.11 277.162 162.881 277.36 162.696C277.44 162.628 277.501 162.541 277.54 162.444C277.579 162.346 277.594 162.241 277.583 162.137L277.534 161.642L277.618 161.672H277.667C277.667 161.672 278.464 159.054 278.375 157.218C278.375 157.218 279.859 151.962 280.973 151.136V151.101L281.077 151.052L281.314 156.144L281.072 161.756L281.018 162.092C281.018 162.092 279.399 164.121 279.874 164.408C280.349 164.695 281.082 164.819 281.78 163.74C281.874 163.486 282.027 163.257 282.225 163.072C282.304 163.004 282.366 162.917 282.405 162.82C282.443 162.722 282.458 162.617 282.448 162.513L282.373 161.771C282.651 160.825 283.363 158.104 283.071 156.525L283.566 153.17C284.061 152.611 283.997 151.19 283.997 151.19C284.388 150.374 284.492 147.172 284.492 147.172L284.591 145.588C284.665 145.582 284.739 145.582 284.813 145.588H284.863H284.892V145.558C284.907 145.546 284.918 145.531 284.927 145.514H284.957V145.474L284.952 145.469ZM283.566 148.686C283.522 148.577 283.472 148.468 283.418 148.36H283.378V148.32C283.377 148.307 283.377 148.293 283.378 148.28V148.241C283.401 148.188 283.421 148.133 283.437 148.077C283.501 147.975 283.534 147.857 283.532 147.736C283.59 148.049 283.601 148.369 283.566 148.686ZM283.418 147.33L283.319 146.271L283.348 146.187L283.482 147.533L283.418 147.33ZM278.726 147.474C278.692 147.513 278.667 147.558 278.651 147.608C278.636 147.657 278.631 147.709 278.637 147.761C278.637 147.761 278.637 147.761 278.637 147.795C278.638 147.902 278.653 148.009 278.682 148.112L278.528 148.775V147.508C278.63 147.375 278.719 147.232 278.796 147.083C278.811 147.217 278.787 147.353 278.726 147.474Z" fill="url(#paint3_linear)"/>
<path d="M279.726 139.298C279.544 139.696 279.477 140.137 279.533 140.57C279.559 140.786 279.532 141.005 279.455 141.208C279.379 141.411 279.254 141.593 279.092 141.738C279.164 141.768 279.24 141.783 279.317 141.783C279.395 141.783 279.471 141.768 279.543 141.738C279.684 141.679 279.818 141.6 279.939 141.506C280.052 141.437 280.148 141.344 280.221 141.233C280.289 141.062 280.311 140.876 280.285 140.694C280.286 140.371 280.314 140.048 280.369 139.729C280.399 139.531 280.587 138.992 280.369 138.888C280.151 138.784 279.82 139.15 279.726 139.298Z" fill="#72351C"/>
<path d="M276.454 160.336L276.301 161.325C276.301 161.325 274.742 163.305 275.202 163.557C275.662 163.81 276.365 163.953 277.038 162.914C277.128 162.669 277.274 162.449 277.464 162.27C277.54 162.204 277.599 162.121 277.636 162.027C277.673 161.933 277.687 161.831 277.677 161.731L277.523 160.222L276.454 160.336Z" fill="#333333"/>
<path d="M281.146 160.726L280.992 161.716C280.992 161.716 279.433 163.696 279.894 163.948C280.354 164.201 281.057 164.344 281.73 163.305C281.82 163.06 281.965 162.84 282.155 162.661C282.231 162.595 282.29 162.512 282.328 162.418C282.365 162.324 282.378 162.222 282.368 162.122L282.215 160.613L281.146 160.726Z" fill="#333333"/>
<path d="M278.715 148.894C278.715 148.894 277.983 149.423 277.726 151.264L276.959 155.872C276.959 155.872 276.31 160.048 276.429 160.85L277.726 161.296C277.726 161.296 278.493 158.772 278.409 157.015C278.409 157.015 279.967 151.462 281.061 151.076L281.294 155.981L281.046 161.498L282.155 161.721C282.155 161.721 283.278 158.208 282.922 156.347L283.501 152.388C283.501 152.388 284.164 150.275 283.244 148.429L278.715 148.894Z" fill="#4D8AF0"/>
<g opacity="0.1">
<path opacity="0.1" d="M280.948 151.151V151.066C279.854 151.457 278.296 157.005 278.296 157.005C278.269 158.441 278.044 159.867 277.627 161.241L277.766 161.291C277.766 161.291 278.533 158.767 278.449 157.01C278.444 157.015 279.869 151.967 280.948 151.151Z" fill="black"/>
<path opacity="0.1" d="M283.289 148.453H283.14C283.673 149.694 283.76 151.08 283.388 152.378L282.809 156.337C283.15 158.098 282.156 161.34 282.052 161.681L282.195 161.711C282.195 161.711 283.319 158.197 282.962 156.337L283.541 152.378C283.541 152.378 284.209 150.274 283.289 148.453Z" fill="black"/>
</g>
<path d="M277.721 145.286C277.72 145.324 277.732 145.361 277.756 145.391C277.779 145.421 277.812 145.442 277.849 145.45C278.211 145.541 278.549 145.709 278.839 145.944C279.384 146.37 278.26 145.093 278.26 145.093L277.884 145.177L277.731 145.316L277.721 145.286Z" fill="#F55F44"/>
<path opacity="0.1" d="M277.721 145.286C277.72 145.324 277.732 145.361 277.756 145.391C277.779 145.421 277.812 145.442 277.849 145.45C278.211 145.541 278.549 145.709 278.839 145.944C279.384 146.37 278.26 145.093 278.26 145.093L277.884 145.177L277.731 145.316L277.721 145.286Z" fill="black"/>
<path d="M283.076 146.415C283.534 146.09 284.064 145.881 284.62 145.806C284.658 145.806 284.695 145.791 284.722 145.764C284.749 145.737 284.764 145.701 284.764 145.662C284.764 145.662 283.467 145.153 283.076 146.415Z" fill="#F55F44"/>
<path opacity="0.1" d="M284.764 145.657C284.764 145.657 283.467 145.162 283.076 146.41C283.076 146.41 284.031 145.677 284.694 145.796" fill="black"/>
<path d="M281.571 141.382C282.503 141.382 283.258 140.626 283.258 139.694C283.258 138.762 282.503 138.007 281.571 138.007C280.639 138.007 279.883 138.762 279.883 139.694C279.883 140.626 280.639 141.382 281.571 141.382Z" fill="#72351C"/>
<path d="M280.407 140.877C280.407 140.877 280.645 141.867 280.407 142.07C280.17 142.273 279.69 142.649 280.051 142.941C280.412 143.233 281.704 143.728 282.135 143.485C282.565 143.243 283.055 143.317 282.936 142.822C282.818 142.327 281.877 142.431 281.862 139.971L280.407 140.877Z" fill="#FDB797"/>
<path opacity="0.1" d="M278.018 144.989C278.053 145.526 278.018 146.065 277.914 146.593C277.804 147.126 277.741 147.667 277.726 148.211C277.775 148.567 277.879 150.923 277.879 150.923C277.879 150.923 277.691 152.987 278.696 152.799C279.7 152.611 278.542 150.443 278.542 150.443L278.592 147.627C278.864 147.257 279.035 146.822 279.087 146.365C279.161 145.687 278.018 144.989 278.018 144.989Z" fill="black"/>
<path d="M278.003 144.989C278.038 145.526 278.003 146.065 277.899 146.593C277.79 147.126 277.727 147.667 277.711 148.211C277.76 148.567 277.864 150.923 277.864 150.923C277.864 150.923 277.676 152.987 278.681 152.799C279.685 152.611 278.527 150.443 278.527 150.443L278.577 147.627C278.849 147.257 279.02 146.822 279.072 146.365C279.141 145.687 278.003 144.989 278.003 144.989Z" fill="#FDB797"/>
<path opacity="0.1" d="M284.432 145.143L284.293 147.345C284.293 147.345 284.209 150.433 283.833 151.215C283.833 151.215 283.937 153.383 282.927 153.328C281.918 153.274 283.096 150.958 283.096 150.958C283.096 150.958 283.635 148.548 283.358 147.786L283.096 145.143H284.432Z" fill="black"/>
<path d="M284.446 145.143L284.308 147.345C284.308 147.345 284.224 150.433 283.848 151.215C283.848 151.215 283.952 153.383 282.942 153.328C281.933 153.274 283.11 150.958 283.11 150.958C283.11 150.958 283.65 148.548 283.373 147.786L283.11 145.143H284.446Z" fill="#FDB797"/>
<path opacity="0.1" d="M281.176 143.01C281.176 143.01 281.992 143.386 282.438 142.267L284.095 143.079C284.197 143.176 284.278 143.293 284.334 143.422C284.389 143.551 284.417 143.691 284.417 143.831L284.773 145.741C284.773 145.741 283.561 145.331 283.185 146.459L283.289 147.533C283.367 147.798 283.348 148.082 283.234 148.335C283.224 148.357 283.219 148.382 283.219 148.406C283.219 148.431 283.224 148.456 283.234 148.478C283.259 148.556 283.265 148.639 283.252 148.72C283.239 148.801 283.207 148.878 283.159 148.944C283.111 149.011 283.048 149.065 282.975 149.103C282.902 149.14 282.821 149.16 282.739 149.161C282.294 149.166 281.849 149.201 281.408 149.265C281.052 149.369 279.973 149.062 279.617 149.265C279.26 149.468 278.508 149.112 278.508 149.112L278.711 148.241C278.711 148.241 278.573 147.815 278.746 147.662C278.919 147.508 278.815 146.177 278.662 145.801C278.662 145.801 278.048 145.222 277.672 145.306L278.167 143.104C278.274 142.898 278.432 142.724 278.626 142.598C278.82 142.473 279.044 142.4 279.275 142.386C279.659 142.421 280.042 142.311 280.349 142.079C280.349 142.079 279.978 142.891 281.176 143.01Z" fill="black"/>
<path opacity="0.1" d="M281.26 142.97C281.482 143.03 282.076 143.094 282.433 142.198L284.09 143.01C284.192 143.107 284.273 143.224 284.329 143.353C284.384 143.482 284.412 143.621 284.412 143.762L284.768 145.672C284.768 145.672 283.556 145.262 283.18 146.39L283.284 147.464L283.353 147.677C283.383 147.768 283.391 147.864 283.376 147.959C283.361 148.053 283.325 148.143 283.269 148.221C283.246 148.248 283.23 148.28 283.224 148.315C283.218 148.35 283.221 148.386 283.234 148.419C283.259 148.497 283.265 148.58 283.252 148.661C283.239 148.742 283.207 148.819 283.159 148.885C283.111 148.952 283.048 149.006 282.975 149.043C282.902 149.081 282.821 149.101 282.739 149.102C282.294 149.107 281.849 149.142 281.408 149.206C281.052 149.31 279.973 149.003 279.617 149.206C279.26 149.409 278.508 149.052 278.508 149.052L278.711 148.181C278.711 148.181 278.573 147.756 278.746 147.602C278.919 147.449 278.815 146.118 278.662 145.742C278.662 145.742 278.048 145.163 277.672 145.247L278.167 143.045C278.274 142.839 278.432 142.665 278.626 142.539C278.82 142.413 279.044 142.34 279.275 142.327C279.659 142.361 280.042 142.252 280.349 142.02C280.349 142.02 279.948 142.753 281.002 142.911L281.26 142.97Z" fill="black"/>
<path d="M281.26 143.005C281.483 143.064 282.076 143.129 282.433 142.233L284.091 143.045C284.192 143.141 284.274 143.258 284.329 143.388C284.384 143.517 284.413 143.656 284.412 143.797L284.769 145.707C284.769 145.707 283.556 145.296 283.18 146.425L283.284 147.498C283.362 147.764 283.343 148.048 283.229 148.3C283.219 148.323 283.214 148.347 283.214 148.372C283.214 148.397 283.219 148.421 283.229 148.444C283.254 148.522 283.26 148.605 283.247 148.686C283.234 148.767 283.202 148.843 283.154 148.91C283.106 148.976 283.043 149.03 282.97 149.068C282.897 149.106 282.817 149.126 282.735 149.127C282.289 149.132 281.844 149.166 281.403 149.231C281.047 149.334 279.968 149.028 279.612 149.231C279.256 149.433 278.503 149.077 278.503 149.077L278.706 148.206C278.706 148.206 278.568 147.781 278.741 147.627C278.914 147.474 278.81 146.143 278.657 145.766C278.657 145.766 278.043 145.187 277.667 145.272L278.162 143.069C278.269 142.864 278.427 142.69 278.621 142.564C278.816 142.438 279.039 142.365 279.27 142.352C279.654 142.386 280.037 142.277 280.344 142.045C280.344 142.045 279.943 142.777 280.998 142.936L281.26 143.005Z" fill="#F55F44"/>
<path opacity="0.1" d="M281.887 140.06L280.438 140.966C280.474 141.129 280.502 141.295 280.522 141.461C280.687 141.527 280.863 141.56 281.041 141.56C281.395 141.535 281.729 141.384 281.982 141.134C281.916 140.78 281.884 140.421 281.887 140.06Z" fill="black"/>
<path d="M281.012 141.451C281.785 141.451 282.412 140.824 282.412 140.05C282.412 139.277 281.785 138.65 281.012 138.65C280.238 138.65 279.611 139.277 279.611 140.05C279.611 140.824 280.238 141.451 281.012 141.451Z" fill="#FDB797"/>
<path d="M283.076 138.977C283.415 138.977 283.69 138.702 283.69 138.363C283.69 138.024 283.415 137.749 283.076 137.749C282.737 137.749 282.462 138.024 282.462 138.363C282.462 138.702 282.737 138.977 283.076 138.977Z" fill="#72351C"/>
<path d="M283.194 139.011C283.039 139.012 282.889 138.953 282.775 138.848C282.661 138.742 282.592 138.597 282.581 138.442C282.581 138.442 282.581 138.472 282.581 138.487C282.581 138.65 282.645 138.806 282.76 138.921C282.875 139.036 283.031 139.1 283.194 139.1C283.357 139.1 283.513 139.036 283.628 138.921C283.743 138.806 283.808 138.65 283.808 138.487C283.808 138.487 283.808 138.457 283.808 138.442C283.797 138.597 283.727 138.742 283.613 138.848C283.499 138.953 283.35 139.012 283.194 139.011Z" fill="#72351C"/>
<path d="M282.844 139.595C282.692 139.566 282.556 139.481 282.464 139.356C282.372 139.231 282.331 139.076 282.349 138.922V138.962C282.32 139.122 282.355 139.287 282.447 139.421C282.54 139.555 282.681 139.647 282.841 139.677C283.002 139.706 283.167 139.671 283.301 139.579C283.435 139.486 283.527 139.345 283.557 139.185V139.14C283.519 139.293 283.424 139.425 283.291 139.51C283.159 139.595 282.998 139.625 282.844 139.595Z" fill="#72351C"/>
<path d="M282.368 141.08C282.216 141.051 282.08 140.965 281.988 140.84C281.896 140.716 281.855 140.561 281.873 140.407V140.446C281.843 140.606 281.879 140.772 281.971 140.906C282.063 141.04 282.205 141.132 282.365 141.161C282.526 141.191 282.691 141.156 282.825 141.063C282.959 140.971 283.051 140.829 283.08 140.669V140.624C283.043 140.777 282.948 140.91 282.815 140.994C282.682 141.079 282.522 141.11 282.368 141.08Z" fill="#72351C"/>
<path d="M283.194 138.685C283.038 138.685 282.888 138.626 282.774 138.519C282.66 138.412 282.591 138.266 282.581 138.111C282.581 138.111 282.581 138.14 282.581 138.155C282.581 138.318 282.645 138.474 282.76 138.589C282.875 138.704 283.031 138.769 283.194 138.769C283.357 138.769 283.513 138.704 283.628 138.589C283.743 138.474 283.808 138.318 283.808 138.155C283.808 138.155 283.808 138.125 283.808 138.111C283.798 138.266 283.729 138.412 283.615 138.519C283.501 138.626 283.35 138.685 283.194 138.685Z" fill="#72351C"/>
<path d="M282.338 138.353C282.339 138.197 282.4 138.047 282.507 137.934C282.615 137.821 282.762 137.753 282.917 137.744H282.873C282.71 137.744 282.554 137.809 282.439 137.924C282.324 138.039 282.259 138.195 282.259 138.358C282.259 138.521 282.324 138.677 282.439 138.792C282.554 138.907 282.71 138.972 282.873 138.972H282.917C282.76 138.963 282.612 138.894 282.504 138.778C282.396 138.663 282.337 138.511 282.338 138.353Z" fill="#72351C"/>
<path opacity="0.1" d="M282.958 144.143C283.022 144.447 283.022 144.76 282.958 145.064C282.958 145.064 282.874 145.865 283.007 146.004" fill="black"/>
<path opacity="0.1" d="M278.809 144.331C278.874 144.635 278.874 144.948 278.809 145.252C278.809 145.252 278.725 146.053 278.859 146.192" fill="black"/>
<path opacity="0.1" d="M278.774 147.622C278.907 147.67 279.052 147.67 279.185 147.622C279.346 147.573 279.519 147.573 279.68 147.622" fill="black"/>
<path opacity="0.1" d="M278.983 146.415C279.465 146.438 279.947 146.362 280.398 146.192C280.398 146.192 282.14 146.618 282.635 146.311" fill="black"/>
<path d="M278.458 153.768H278.047C277.864 153.768 277.716 153.917 277.716 154.1C277.716 154.283 277.864 154.432 278.047 154.432H278.458C278.641 154.432 278.79 154.283 278.79 154.1C278.79 153.917 278.641 153.768 278.458 153.768Z" fill="#FDB797"/>
<path d="M277.721 153.947L278.295 153.922L278.79 154.001H278.616L277.721 153.947Z" fill="#F0E4E4"/>
<path d="M281.592 151.17H282.166L282.661 151.22H282.488L281.592 151.17Z" fill="#F0E4E4"/>
<path d="M281.592 151.289H282.166L282.661 151.339H282.488L281.592 151.289Z" fill="#F0E4E4"/>
<path d="M281.592 151.413H282.166L282.661 151.462H282.488L281.592 151.413Z" fill="#F0E4E4"/>
<path d="M281.592 151.531H282.166L282.661 151.581H282.488L281.592 151.531Z" fill="#F0E4E4"/>
<path d="M277.721 154.407H278.295L278.79 154.466H278.616L277.721 154.407Z" fill="#F0E4E4"/>
<path d="M277.721 154.348H278.295L278.79 154.407H278.616L277.721 154.348Z" fill="#F0E4E4"/>
<path d="M277.721 154.288H278.295L278.79 154.348H278.616L277.721 154.288Z" fill="#F0E4E4"/>
<path d="M277.721 154.229H278.295L278.79 154.288H278.616L277.721 154.229Z" fill="#F0E4E4"/>
<path d="M277.721 153.858L278.295 153.833L278.79 153.912H278.616L277.721 153.858Z" fill="#F0E4E4"/>
<path d="M277.721 153.754L278.295 153.729L278.79 153.808H278.616L277.721 153.754Z" fill="#F0E4E4"/>
<path opacity="0.1" d="M281.249 139.155C281.195 139.678 281.262 140.206 281.447 140.699C281.539 140.938 281.58 141.193 281.567 141.449C281.554 141.705 281.488 141.955 281.373 142.183C281.449 142.201 281.528 142.2 281.604 142.181C281.68 142.162 281.75 142.126 281.809 142.074C281.932 141.967 282.038 141.842 282.125 141.703C282.217 141.59 282.283 141.459 282.318 141.317C282.333 141.095 282.3 140.872 282.219 140.664C282.123 140.285 282.054 139.9 282.012 139.511C281.982 139.273 282.012 138.591 281.744 138.521C281.477 138.452 281.299 138.957 281.249 139.155Z" fill="black"/>
<path d="M281.284 139.14C281.229 139.663 281.297 140.192 281.482 140.684C281.574 140.923 281.615 141.178 281.602 141.434C281.589 141.69 281.523 141.94 281.408 142.169C281.484 142.186 281.563 142.185 281.639 142.166C281.714 142.148 281.784 142.111 281.843 142.06C281.966 141.952 282.073 141.827 282.16 141.689C282.252 141.576 282.318 141.444 282.353 141.303C282.368 141.08 282.334 140.857 282.254 140.649C282.158 140.27 282.089 139.885 282.046 139.496C282.017 139.259 282.046 138.576 281.779 138.507C281.512 138.437 281.334 138.937 281.284 139.14Z" fill="#72351C"/>
<path opacity="0.1" d="M280.681 139.506C280.8 139.63 280.824 139.813 280.923 139.951C281.011 140.046 281.119 140.12 281.239 140.167C281.359 140.215 281.487 140.236 281.616 140.229C281.687 140.225 281.757 140.24 281.819 140.273C281.928 140.342 281.933 140.501 282.002 140.61C282.039 140.649 282.084 140.681 282.134 140.703C282.184 140.724 282.237 140.735 282.292 140.735C282.346 140.735 282.4 140.724 282.45 140.703C282.499 140.681 282.544 140.649 282.581 140.61C282.724 140.439 282.803 140.224 282.804 140.001C282.828 139.756 282.828 139.509 282.804 139.263C282.797 138.983 282.686 138.714 282.492 138.511C282.33 138.391 282.142 138.31 281.943 138.274C281.671 138.178 281.379 138.156 281.097 138.209C280.959 138.255 280.829 138.32 280.711 138.402C280.542 138.511 280.377 138.622 280.216 138.734C280.033 138.863 279.686 139.12 280.023 139.259C280.235 139.358 280.503 139.313 280.681 139.506Z" fill="black"/>
<path d="M280.716 139.486C280.834 139.61 280.859 139.793 280.958 139.932C281.046 140.026 281.154 140.1 281.273 140.148C281.393 140.196 281.522 140.217 281.651 140.209C281.721 140.205 281.791 140.221 281.854 140.253C281.963 140.323 281.968 140.481 282.037 140.59C282.074 140.63 282.119 140.661 282.169 140.683C282.218 140.705 282.272 140.716 282.326 140.716C282.381 140.716 282.434 140.705 282.484 140.683C282.534 140.661 282.579 140.63 282.616 140.59C282.759 140.419 282.838 140.204 282.839 139.981C282.862 139.736 282.862 139.489 282.839 139.244C282.832 138.963 282.721 138.695 282.527 138.492C282.364 138.371 282.176 138.29 281.977 138.254C281.706 138.158 281.414 138.136 281.131 138.19C280.994 138.235 280.864 138.3 280.745 138.383C280.577 138.492 280.412 138.602 280.25 138.714C280.067 138.843 279.721 139.1 280.057 139.239C280.27 139.338 280.552 139.298 280.716 139.486Z" fill="#72351C"/>
<path d="M281.625 151.17H282.199L282.694 151.22H282.531L281.625 151.17Z" fill="#F0E4E4"/>
<path d="M281.625 151.289H282.199L282.694 151.339H282.531L281.625 151.289Z" fill="#F0E4E4"/>
<path d="M281.625 151.413H282.199L282.694 151.462H282.531L281.625 151.413Z" fill="#F0E4E4"/>
<path d="M281.625 151.531H282.199L282.694 151.581H282.531L281.625 151.531Z" fill="#F0E4E4"/>
<path d="M281.378 158.099H281.952L282.447 158.148H282.274L281.378 158.099Z" fill="#F0E4E4"/>
<path d="M281.378 158.222H281.952L282.447 158.272H282.274L281.378 158.222Z" fill="#F0E4E4"/>
<path d="M281.378 158.341H281.952L282.447 158.391H282.274L281.378 158.341Z" fill="#F0E4E4"/>
<path d="M281.378 158.46H281.952L282.447 158.509H282.274L281.378 158.46Z" fill="#F0E4E4"/>
<defs>
<linearGradient id="paint0_linear" x1="223.096" y1="301.955" x2="223.096" y2="188.261" gradientUnits="userSpaceOnUse">
<stop stop-color="#808080" stop-opacity="0.25"/>
<stop offset="0.54" stop-color="#808080" stop-opacity="0.12"/>
<stop offset="1" stop-color="#808080" stop-opacity="0.1"/>
</linearGradient>
<linearGradient id="paint1_linear" x1="157738" y1="121356" x2="157738" y2="0" gradientUnits="userSpaceOnUse">
<stop stop-color="#808080" stop-opacity="0.25"/>
<stop offset="0.54" stop-color="#808080" stop-opacity="0.12"/>
<stop offset="1" stop-color="#808080" stop-opacity="0.1"/>
</linearGradient>
<linearGradient id="paint2_linear" x1="96706.9" y1="141799" x2="96706.9" y2="61074" gradientUnits="userSpaceOnUse">
<stop stop-color="#808080" stop-opacity="0.25"/>
<stop offset="0.54" stop-color="#808080" stop-opacity="0.12"/>
<stop offset="1" stop-color="#808080" stop-opacity="0.1"/>
</linearGradient>
<linearGradient id="paint3_linear" x1="7176.28" y1="13184.6" x2="7176.28" y2="11672.7" gradientUnits="userSpaceOnUse">
<stop stop-color="#808080" stop-opacity="0.25"/>
<stop offset="0.54" stop-color="#808080" stop-opacity="0.12"/>
<stop offset="1" stop-color="#808080" stop-opacity="0.1"/>
</linearGradient>
</defs>
</svg>
